<svg id="Group_291" data-name="Group 291" xmlns="http://www.w3.org/2000/svg" width="28.455" height="22.357" viewBox="0 0 28.455 22.357">
  <path id="Path_304" data-name="Path 304" d="M2.541,63.243H3.557V60.7A2.548,2.548,0,0,1,6.1,58.162h7.622V55.114H12.7a2.548,2.548,0,0,1-2.541-2.541V50.541A2.548,2.548,0,0,1,12.7,48h3.049a2.548,2.548,0,0,1,2.541,2.541v2.032a2.548,2.548,0,0,1-2.541,2.541H14.735v3.049h7.622A2.548,2.548,0,0,1,24.9,60.7v2.541h1.016a2.548,2.548,0,0,1,2.541,2.541v2.032a2.548,2.548,0,0,1-2.541,2.541H22.865a2.548,2.548,0,0,1-2.541-2.541V65.784a2.548,2.548,0,0,1,2.541-2.541h1.016V60.7a1.529,1.529,0,0,0-1.524-1.524H14.735v4.065h1.016a2.548,2.548,0,0,1,2.541,2.541v2.032a2.548,2.548,0,0,1-2.541,2.541H12.7a2.548,2.548,0,0,1-2.541-2.541V65.784A2.548,2.548,0,0,1,12.7,63.243h1.016V59.179H6.1A1.529,1.529,0,0,0,4.573,60.7v2.541H5.589A2.548,2.548,0,0,1,8.13,65.784v2.032a2.548,2.548,0,0,1-2.541,2.541H2.541A2.548,2.548,0,0,1,0,67.817V65.784A2.548,2.548,0,0,1,2.541,63.243ZM22.865,64.26a1.529,1.529,0,0,0-1.524,1.524v2.032a1.529,1.529,0,0,0,1.524,1.524h3.049a1.529,1.529,0,0,0,1.524-1.524V65.784a1.529,1.529,0,0,0-1.524-1.524Zm-10.162,0a1.529,1.529,0,0,0-1.524,1.524v2.032A1.529,1.529,0,0,0,12.7,69.341h3.049a1.529,1.529,0,0,0,1.524-1.524V65.784a1.529,1.529,0,0,0-1.524-1.524ZM15.752,54.1a1.529,1.529,0,0,0,1.524-1.524V50.541a1.529,1.529,0,0,0-1.524-1.524H12.7a1.529,1.529,0,0,0-1.524,1.524v2.032A1.529,1.529,0,0,0,12.7,54.1ZM1.016,67.817a1.529,1.529,0,0,0,1.524,1.524H5.589a1.529,1.529,0,0,0,1.524-1.524V65.784A1.529,1.529,0,0,0,5.589,64.26H2.541a1.529,1.529,0,0,0-1.524,1.524Z" transform="translate(0 -48)"/>
</svg>
