<svg id="Layer_1" data-name="Layer 1" xmlns="http://www.w3.org/2000/svg" viewBox="0 0 384 384"><path d="M1152,732H768V348h384ZM856.07,452.11c-7.82,0-15.06,0-22.31,0-15.7,0-25.77,10-25.78,25.81q-.06,98.48,0,197c0,20.19,13.83,33.76,34.08,33.76q122.08,0,244.16,0c16.22,0,26.23-9.93,26.23-26.13q0-142.18,0-284.36c0-16.46-9.9-26.24-26.46-26.24H882.72c-16.75,0-26.61,9.78-26.64,26.49q0,24.38,0,48.76Z" transform="translate(-768 -348)" /><path d="M856.07,452.11v-4.95q0-24.37,0-48.76c0-16.71,9.89-26.49,26.64-26.49H1086c16.56,0,26.46,9.78,26.46,26.24q0,142.19,0,284.36c0,16.2-10,26.12-26.23,26.13q-122.09,0-244.16,0c-20.25,0-34.06-13.57-34.08-33.76q-.11-98.48,0-196.95c0-15.78,10.08-25.77,25.78-25.81C841,452.09,848.25,452.11,856.07,452.11Zm11.77,240.41h217.37a37.73,37.73,0,0,0,4.12-.13,7.56,7.56,0,0,0,7.09-7,29.29,29.29,0,0,0,.07-3.38V398.4a22.25,22.25,0,0,0-.09-3.37c-.58-3.71-2.6-6.19-6.42-6.82a29.06,29.06,0,0,0-4.85-.31H883.72c-9.52,0-11.58,2.1-11.58,11.76q0,130.92,0,261.85C872.09,671.79,873.59,682.3,867.84,692.52ZM856.07,468.41a11.87,11.87,0,0,0-1.45-.31q-9.75,0-19.49,0c-8.82,0-11,2.24-11,11.13V673.77c0,1.25,0,2.51,0,3.75A15.5,15.5,0,0,0,838,692.35c8.36.83,15.58-3.78,17.48-11.44a31.31,31.31,0,0,0,.62-7.44q0-100.29,0-200.59Z" transform="translate(-768 -348)"/><path d="M867.84,692.52c5.75-10.22,4.25-20.73,4.26-31q.09-130.92,0-261.85c0-9.66,2.06-11.76,11.58-11.76h201.41a29.06,29.06,0,0,1,4.85.31c3.82.63,5.84,3.11,6.42,6.82a22.25,22.25,0,0,1,.09,3.37V682a29.29,29.29,0,0,1-.07,3.38,7.56,7.56,0,0,1-7.09,7,37.73,37.73,0,0,1-4.12.13H867.84Zm36.45-232.6c0,3.12-.12,6.25,0,9.37a23.7,23.7,0,0,0,23,22.73c6,.21,12,.21,18,0a23.8,23.8,0,0,0,23-23.52q.16-8.43,0-16.86a23.86,23.86,0,0,0-23.39-23.52q-8.61-.21-17.23,0a23.77,23.77,0,0,0-23.28,22.81C904.17,453.92,904.29,456.92,904.29,459.92Zm0,80.25c0,3-.11,6,0,9a23.82,23.82,0,0,0,23.42,23.07q8.61.19,17.23,0a23.9,23.9,0,0,0,23.25-23.28c.13-5.86.14-11.74,0-17.6a23.73,23.73,0,0,0-22.72-23c-6.1-.23-12.23-.22-18.34,0a23.64,23.64,0,0,0-22.82,22.84C904.17,534.18,904.29,537.18,904.28,540.17Zm24.31,85.9c-4.19-4.4-7.34-8-10.75-11.25-3.75-3.61-7.89-3.59-11.32-.26s-3.59,7.74.12,11.59q7.7,8,15.65,15.64c3.82,3.68,8.16,3.65,12-.12q15.75-15.55,31.3-31.3c3.59-3.62,3.64-8.42.41-11.7s-7.93-3.26-11.66.39q-10.85,10.63-21.49,21.47A56.83,56.83,0,0,0,928.59,626.07Zm95.6-93.81c10.61,0,21.23,0,31.85,0,5.57,0,8.85-3,8.92-7.93s-3.12-8.12-8.72-8.14c-21.48-.07-43,0-64.46,0a7.3,7.3,0,0,0-7.34,4.8c-2.32,5.76,1.38,11.15,7.89,11.21C1003,532.33,1013.57,532.26,1024.19,532.26Zm.13,64.07h0c-10.62,0-21.25-.1-31.87,0-5,.06-8.08,3.29-8.11,8,0,4.41,2.76,7.87,7.29,7.9,21.87.16,43.74.07,65.61,0a5.33,5.33,0,0,0,1.11-.17,7.06,7.06,0,0,0,5.91-6.4c.79-5.54-2.53-9.31-8.45-9.37C1045.31,596.25,1034.82,596.33,1024.32,596.33Zm-.22-144.23c10.62,0,21.25,0,31.87,0,5.13,0,8-2.57,8.54-7.09.57-5.4-2.79-8.86-8.93-8.88-16.87-.06-33.75,0-50.62,0-4.37,0-8.75,0-13.12.06a7.13,7.13,0,0,0-7.16,5c-2.08,5.7,1.55,10.86,7.92,10.93C1003.1,452.19,1013.6,452.1,1024.1,452.1Zm-15.61,16c-5.12,0-10.25-.07-15.37,0-5.57.1-8.8,3.16-8.78,8.09s3.23,7.93,8.86,8q15.19.14,30.37,0c5.6-.06,8.82-3.15,8.79-8.07s-3.27-7.91-8.87-8C1018.49,468,1013.49,468.06,1008.49,468.06Zm.18,80.18c-5.12,0-10.25-.06-15.37,0-5.45.07-8.58,2.89-8.72,7.69-.15,5.08,2.86,8.22,8.45,8.3q15.38.19,30.75,0c5.62-.06,8.85-3.17,8.81-8s-3.41-7.9-8.92-8C1018.67,548.19,1013.67,548.24,1008.67,548.24Zm0,80.23c-5.38,0-10.75-.07-16.12,0-5,.08-8.14,3.18-8.21,7.83s3,8,8,8q15.93.2,31.86,0c5.07-.06,8.15-3.16,8.21-7.81.07-4.8-3.15-8-8.33-8.08S1013.78,628.47,1008.66,628.47Z" transform="translate(-768 -348)" style="fill:#fff"/><path d="M856.07,468.41v4.47q0,100.3,0,200.59a31.31,31.31,0,0,1-.62,7.44c-1.9,7.66-9.12,12.27-17.48,11.44a15.5,15.5,0,0,1-13.82-14.83c-.06-1.24,0-2.5,0-3.75V479.19c0-8.89,2.22-11.13,11-11.13q9.74,0,19.49,0A11.87,11.87,0,0,1,856.07,468.41Z" transform="translate(-768 -348)" style="fill:#fff"/><path d="M904.29,459.92c0-3-.12-6,0-9a23.77,23.77,0,0,1,23.28-22.81q8.61-.21,17.23,0a23.86,23.86,0,0,1,23.39,23.52q.16,8.43,0,16.86a23.8,23.8,0,0,1-23,23.52c-6,.21-12,.21-18,0a23.7,23.7,0,0,1-23-22.73C904.17,466.17,904.29,463,904.29,459.92Zm31.85,16.22c2.62,0,5.25.08,7.86,0,4.79-.18,7.91-2.85,8.16-7.54.29-5.6.28-11.23,0-16.83-.22-4.74-3.24-7.54-8-7.69-5.23-.17-10.48-.16-15.71,0s-8.11,3.24-8.21,8.29c-.1,5.24-.12,10.48,0,15.72.12,4.82,3.18,7.83,8,8.05C930.9,476.23,933.52,476.13,936.14,476.14Z" transform="translate(-768 -348)"/><path d="M904.28,540.17c0-3-.11-6,0-9a23.64,23.64,0,0,1,22.82-22.84c6.11-.21,12.24-.22,18.34,0a23.73,23.73,0,0,1,22.72,23c.15,5.86.14,11.74,0,17.6A23.9,23.9,0,0,1,945,572.22q-8.61.21-17.23,0a23.82,23.82,0,0,1-23.42-23.07C904.17,546.17,904.28,543.17,904.28,540.17Zm32.15,16.14c2.49,0,5,.09,7.48,0,5.13-.23,8.13-3.07,8.32-8.21s.19-10.48,0-15.71-3.24-8-8.37-8.12-10.22-.11-15.33,0-8.23,3.21-8.31,8.54q-.12,7.49,0,15c.09,5.29,3.06,8.31,8.36,8.54C931.19,556.41,933.81,556.32,936.43,556.31Z" transform="translate(-768 -348)"/><path d="M928.59,626.07a56.83,56.83,0,0,1,4.24-5.54q10.65-10.83,21.49-21.47c3.73-3.65,8.4-3.71,11.66-.39s3.18,8.08-.41,11.7q-15.57,15.74-31.3,31.3c-3.82,3.77-8.16,3.8-12,.12q-8-7.68-15.65-15.64c-3.71-3.85-3.66-8.17-.12-11.59s7.57-3.35,11.32.26C921.25,618.11,924.4,621.67,928.59,626.07Z" transform="translate(-768 -348)"/><path d="M1024.19,532.26c-10.62,0-21.24.07-31.86,0-6.51-.06-10.21-5.45-7.89-11.21a7.3,7.3,0,0,1,7.34-4.8c21.49-.05,43-.11,64.46,0,5.6,0,8.79,3.23,8.72,8.14s-3.35,7.9-8.92,7.93C1045.42,532.3,1034.8,532.26,1024.19,532.26Z" transform="translate(-768 -348)"/><path d="M1024.32,596.33c10.5,0,21-.08,31.49,0,5.92.06,9.24,3.83,8.45,9.37a7.06,7.06,0,0,1-5.91,6.4,5.33,5.33,0,0,1-1.11.17c-21.87,0-43.74.11-65.61,0-4.53,0-7.32-3.49-7.29-7.9,0-4.67,3.09-7.9,8.11-8,10.62-.14,21.25,0,31.87,0Z" transform="translate(-768 -348)"/><path d="M1024.1,452.1c-10.5,0-21,.09-31.5,0-6.37-.07-10-5.23-7.92-10.93a7.13,7.13,0,0,1,7.16-5c4.37-.07,8.75-.06,13.12-.06,16.87,0,33.75,0,50.62,0,6.14,0,9.5,3.48,8.93,8.88-.49,4.52-3.41,7.06-8.54,7.09C1045.35,452.15,1034.72,452.1,1024.1,452.1Z" transform="translate(-768 -348)"/><path d="M1008.49,468.06c5,0,10-.06,15,0,5.6.09,8.84,3.08,8.87,8s-3.19,8-8.79,8.07q-15.18.15-30.37,0c-5.63,0-8.84-3.07-8.86-8s3.21-8,8.78-8.09C998.24,468,1003.37,468.06,1008.49,468.06Z" transform="translate(-768 -348)"/><path d="M1008.67,548.24c5,0,10,0,15,0,5.51.07,8.89,3.13,8.92,8s-3.19,8-8.81,8q-15.37.18-30.75,0c-5.59-.08-8.6-3.22-8.45-8.3.14-4.8,3.27-7.62,8.72-7.69C998.42,548.18,1003.55,548.24,1008.67,548.24Z" transform="translate(-768 -348)"/><path d="M1008.66,628.47c5.12,0,10.24-.06,15.37,0s8.4,3.28,8.33,8.08c-.06,4.65-3.14,7.75-8.21,7.81q-15.93.15-31.86,0c-4.95-.06-8-3.38-8-8s3.22-7.75,8.21-7.83C997.91,628.4,1003.28,628.47,1008.66,628.47Z" transform="translate(-768 -348)"/><path d="M936.14,476.14c-2.62,0-5.24.09-7.85,0-4.87-.22-7.93-3.23-8-8.05-.13-5.24-.11-10.48,0-15.72.1-5,3.12-8.14,8.21-8.29s10.48-.16,15.71,0c4.78.15,7.8,2.95,8,7.69.27,5.6.28,11.23,0,16.83-.25,4.69-3.37,7.36-8.16,7.54C941.39,476.22,938.76,476.14,936.14,476.14Z" transform="translate(-768 -348)" style="fill:#fff"/><path d="M936.43,556.31c-2.62,0-5.24.1-7.85,0-5.3-.23-8.27-3.25-8.36-8.54q-.12-7.49,0-15c.08-5.33,3.06-8.42,8.31-8.54s10.22-.1,15.33,0,8.17,3,8.37,8.12.19,10.48,0,15.71-3.19,8-8.32,8.21C941.42,556.4,938.92,556.31,936.43,556.31Z" transform="translate(-768 -348)" style="fill:#fff"/></svg>
