<svg id="Layer_1" data-name="Layer 1" xmlns="http://www.w3.org/2000/svg" viewBox="0 0 384 384"><path d="M1152,732H768V348h384ZM1050,371.88c-5.13,7.22-6,14.6-6,22.4q.12,146.1.06,292.21c0,1.37,0,2.75,0,4.12a18,18,0,0,1-36-.13c-.09-3,0-6,0-9,0-8-1.45-9.46-9.3-9.46H789c-.87,0-1.75,0-2.62,0-4.18.19-6.37,2.38-6.47,6.63-.09,3.37,0,6.75,0,10.13C780,707.06,792.82,720,811.05,720q106.89,0,213.76,0a36,36,0,0,0,9.25-1.17c13.48-3.64,21.91-15.42,21.91-30.38q0-137.86,0-275.71v-4.83h2.81c12.63,0,25.25,0,37.88,0,5.14,0,7.25-2.16,7.31-7.31,0-3,0-6,0-9,0-19-12.78-31.69-31.81-31.69H859.91c-19.3,0-32,12.64-32,31.89q0,132,0,264.08v3.85h12v-267c0-13.82,6.94-20.81,20.68-20.81H1050Zm90,167.93c0-22.64.18-44.88-.09-67.12-.1-9.09-7.95-16.33-17.07-16.74-2.22-.1-4.44,0-6.6,0-1.89-15.45-12.19-24.9-25.87-24-12.24.84-22.55,11.17-22.47,26.52.32,62.25.11,124.5.2,186.75a17,17,0,0,0,1.52,7.16c5.31,11,10.91,21.9,16.32,32.87,1.31,2.65,2.95,4.71,6.13,4.7s4.79-2.12,6.09-4.76c5.09-10.3,10.43-20.47,15.31-30.87a25.23,25.23,0,0,0,2.47-10.31q.21-85.68.1-171.38v-4.33c8.24-1.29,12.29-.09,12.11,9.63-.36,19.24-.11,38.5-.11,57.75v4.11ZM941.85,389.58l-.53-.58c-3.36,1.72-6.7,3.46-10.07,5.13-1.37.67-2.78,1.58-4.22,1.68a16.07,16.07,0,0,0-15.17,14.87,9.07,9.07,0,0,1-2.05,4.8,16,16,0,0,0,.1,20.95,9.06,9.06,0,0,1,2,4.83A16.13,16.13,0,0,0,926.8,456a8.43,8.43,0,0,1,4.52,1.81,15.87,15.87,0,0,0,21.22.05A8.41,8.41,0,0,1,957,456a16,16,0,0,0,15-15,8.67,8.67,0,0,1,1.89-4.5c3.33-4.16,5.4-8.95,3.45-13.9-2.52-6.43-5.9-12.54-7.8-19.25a8,8,0,0,0-2-2.66c-5.24-5.82-14.16-3.9-19.69-9.4C946.57,390,943.89,390.1,941.85,389.58ZM882.25,528V539.7h143.42V528Zm143.55,48.21H882.25v11.55H1025.8Zm0,72H882.12V659.8h143.69ZM882.12,563.71h95.54V552.14H882.12ZM930,611.77h95.68v-11.5H930Zm47.77,12.49H882.12V635.8H977.8ZM930,485.7h59.67V474.22H930Zm41.74,24.11V498.15H912.21v11.79h57.54C970.35,509.93,971,509.86,971.76,509.81Zm18.37,53.89h35.54V552.15H990.13Zm-108,48h35.53V600.18H882.11Zm107.93,24h35.66V624.29H990Zm-72.29-150V474.14H894.2v11.63ZM858.11,539.7h11.54V528.13H858.11Zm.08,36.45v11.54h11.56V576.15Zm0,48v11.68h11.51V624.14Z" transform="translate(-768 -348)" style="fill:#fff"/><path d="M1050,371.88H860.61c-13.74,0-20.68,7-20.68,20.81v267h-12v-3.85q0-132,0-264.08c0-19.25,12.68-31.89,32-31.89h212.27c19,0,31.76,12.71,31.81,31.69,0,3,0,6,0,9-.06,5.15-2.17,7.3-7.31,7.31-12.63,0-25.25,0-37.88,0H1056v4.83q0,137.85,0,275.71c0,15-8.43,26.74-21.91,30.38a36,36,0,0,1-9.25,1.17q-106.87.1-213.76,0c-18.23,0-31.06-13-31.13-31.24,0-3.38-.07-6.76,0-10.13.1-4.25,2.29-6.44,6.47-6.63.87,0,1.75,0,2.62,0H998.67c7.85,0,9.29,1.48,9.3,9.46,0,3-.07,6,0,9a18,18,0,0,0,36,.13c0-1.37,0-2.75,0-4.12q0-146.11-.06-292.21C1043.91,386.48,1044.83,379.1,1050,371.88ZM792.14,684.16c-2.14,16.16,8.29,24.14,21.55,24.05C874.82,707.8,936,708,997.1,708H1002c-5.61-7.58-6.39-15.58-6.09-23.87Zm264-288.53h35.6c1-8.73-.64-16.26-8.44-21.05a16.85,16.85,0,0,0-18.74,0C1056.79,379.45,1055.22,387,1056.18,395.63Z" transform="translate(-768 -348)"/><path d="M1140,539.81h-12V535.7c0-19.25-.25-38.51.11-57.75.18-9.72-3.87-10.92-12.11-9.63v4.33q0,85.7-.1,171.38a25.23,25.23,0,0,1-2.47,10.31c-4.88,10.4-10.22,20.57-15.31,30.87-1.3,2.64-2.92,4.74-6.09,4.76s-4.82-2.05-6.13-4.7c-5.41-11-11-21.85-16.32-32.87a17,17,0,0,1-1.52-7.16c-.09-62.25.12-124.5-.2-186.75-.08-15.35,10.23-25.68,22.47-26.52,13.68-.93,24,8.52,25.87,24,2.16,0,4.38-.09,6.6,0,9.12.41,17,7.65,17.07,16.74C1140.13,494.93,1140,517.17,1140,539.81Zm-59.7,12.32v89.56h23.54V552.13Zm0-84v47.55h23.54V468.09Zm0,60V539.7h23.49V528.13Zm23.65-72.4c-.71-7.34-5.77-12-12.34-11.83-4.76.09-11.59,4.57-11.33,11.83ZM1092,670.55c2.93-5.88,5.49-11,8.1-16.26h-16.25C1086.57,659.73,1089.1,664.77,1092,670.55Z" transform="translate(-768 -348)"/><path d="M941.85,389.58c2,.52,4.72.39,6,1.66,5.53,5.5,14.45,3.58,19.69,9.4a8,8,0,0,1,2,2.66c1.9,6.71,5.28,12.82,7.8,19.25,2,4.95-.12,9.74-3.45,13.9A8.67,8.67,0,0,0,972,441a16,16,0,0,1-15,15,8.41,8.41,0,0,0-4.5,1.86,15.87,15.87,0,0,1-21.22-.05A8.43,8.43,0,0,0,926.8,456a16.13,16.13,0,0,1-14.93-14.73,9.06,9.06,0,0,0-2-4.83,16,16,0,0,1-.1-20.95,9.07,9.07,0,0,0,2.05-4.8A16.07,16.07,0,0,1,927,395.81c1.44-.1,2.85-1,4.22-1.68,3.37-1.67,6.71-3.41,10.07-5.13ZM926,417.42c-1.42,1.45-3.05,3.1-4.65,4.77-1.13,1.18-3,2.37-3.08,3.61s1.58,2.92,2.9,3.66c4,2.25,4.88,4.32,3.51,8.89-.4,1.33-.3,3.47.53,4.31s3,1,4.29.57c4.77-1.44,6.53-.69,9,3.81.68,1.21,2.34,2.64,3.52,2.61s2.75-1.51,3.44-2.75c2.37-4.32,4.22-5,9.11-3.61a5.24,5.24,0,0,0,4.29-.74c.77-.68.88-2.77.5-4-1.53-5.08-.91-6.57,3.9-9.27,1.13-.64,2.53-2.22,2.45-3.25a5.41,5.41,0,0,0-2.59-3.57c-4.62-2.56-5.23-4.06-3.7-9.35a3.52,3.52,0,0,0-4.65-4.71c-5.48,1.58-6.56,1.13-9.53-4-.65-1.1-2.24-2.32-3.36-2.29s-2.65,1.3-3.29,2.43c-2.77,4.91-3.89,5.34-9.6,3.78a4.91,4.91,0,0,0-4,.89c-.75.67-.77,2.44-.67,3.69S925.15,415.25,926,417.42Z" transform="translate(-768 -348)"/><path d="M882.25,528h143.42V539.7H882.25Z" transform="translate(-768 -348)"/><path d="M1025.8,576.23v11.55H882.25V576.23Z" transform="translate(-768 -348)"/><path d="M1025.81,648.27V659.8H882.12V648.27Z" transform="translate(-768 -348)"/><path d="M882.12,563.71V552.14h95.54v11.57Z" transform="translate(-768 -348)"/><path d="M930,611.77v-11.5h95.68v11.5Z" transform="translate(-768 -348)"/><path d="M977.8,624.26V635.8H882.12V624.26Z" transform="translate(-768 -348)"/><path d="M930,485.7V474.22h59.67V485.7Z" transform="translate(-768 -348)"/><path d="M971.76,509.81c-.81.05-1.41.12-2,.12H912.21V498.15h59.55Z" transform="translate(-768 -348)"/><path d="M990.13,563.7V552.15h35.54V563.7Z" transform="translate(-768 -348)"/><path d="M882.11,611.72V600.18h35.53v11.54Z" transform="translate(-768 -348)"/><path d="M990,635.76V624.29h35.66v11.47Z" transform="translate(-768 -348)"/><path d="M917.75,485.77H894.2V474.14h23.55Z" transform="translate(-768 -348)"/><path d="M858.11,539.7V528.13h11.54V539.7Z" transform="translate(-768 -348)"/><path d="M858.19,576.15h11.56v11.54H858.19Z" transform="translate(-768 -348)"/><path d="M858.21,624.14h11.51v11.68H858.21Z" transform="translate(-768 -348)"/><path d="M792.14,684.16H995.92c-.3,8.29.48,16.29,6.09,23.87H997.1c-61.14,0-122.28-.23-183.41.18C800.43,708.3,790,700.32,792.14,684.16Z" transform="translate(-768 -348)" style="fill:#fff"/><path d="M1056.18,395.63c-1-8.68.61-16.18,8.42-21a16.85,16.85,0,0,1,18.74,0c7.8,4.79,9.42,12.32,8.44,21.05Z" transform="translate(-768 -348)" style="fill:#fff"/><path d="M1080.25,552.13h23.54v89.56h-23.54Z" transform="translate(-768 -348)" style="fill:#fff"/><path d="M1080.25,468.09h23.54v47.55h-23.54Z" transform="translate(-768 -348)" style="fill:#fff"/><path d="M1080.21,528.13h23.49V539.7h-23.49Z" transform="translate(-768 -348)" style="fill:#fff"/><path d="M1103.86,455.73h-23.67c-.26-7.26,6.57-11.74,11.33-11.83C1098.09,443.77,1103.15,448.39,1103.86,455.73Z" transform="translate(-768 -348)" style="fill:#fff"/><path d="M1092,670.55c-2.89-5.78-5.42-10.82-8.15-16.26h16.25C1097.48,659.54,1094.92,664.67,1092,670.55Z" transform="translate(-768 -348)" style="fill:#fff"/><path d="M926,417.42c-.81-2.17-1.49-3.31-1.6-4.5s-.08-3,.67-3.69a4.91,4.91,0,0,1,4-.89c5.71,1.56,6.83,1.13,9.6-3.78.64-1.13,2.15-2.41,3.29-2.43s2.71,1.19,3.36,2.29c3,5.11,4,5.56,9.53,4a3.52,3.52,0,0,1,4.65,4.71c-1.53,5.29-.92,6.79,3.7,9.35a5.41,5.41,0,0,1,2.59,3.57c.08,1-1.32,2.61-2.45,3.25-4.81,2.7-5.43,4.19-3.9,9.27.38,1.23.27,3.32-.5,4a5.24,5.24,0,0,1-4.29.74c-4.89-1.43-6.74-.71-9.11,3.61-.69,1.24-2.25,2.72-3.44,2.75s-2.84-1.4-3.52-2.61c-2.51-4.5-4.27-5.25-9-3.81-1.32.4-3.47.26-4.29-.57s-.93-3-.53-4.31c1.37-4.57.53-6.64-3.51-8.89-1.32-.74-2.94-2.45-2.9-3.66s1.95-2.43,3.08-3.61C922.91,420.52,924.54,418.87,926,417.42Z" transform="translate(-768 -348)" style="fill:#fff"/></svg>