<svg xmlns="http://www.w3.org/2000/svg" width="71.871" height="67.045" viewBox="0 0 71.871 67.045">
  <g id="office-building_1_" data-name="office-building (1)" transform="translate(0 -17.188)">
    <g id="Group_276" data-name="Group 276" transform="translate(0 17.188)">
      <g id="Group_275" data-name="Group 275" transform="translate(0 0)">
        <path id="Path_129" data-name="Path 129" d="M68.361,77.215H67.47V59.829a1.053,1.053,0,1,0-2.106,0V77.215H43.031V48.6H64.5a.861.861,0,0,1,.86.86V54.87a1.053,1.053,0,0,0,2.106,0V49.456A2.969,2.969,0,0,0,64.5,46.49H43.031V27.358A2.98,2.98,0,0,0,40.315,24.4V22.292a2.981,2.981,0,0,0-2.734-2.957L10.314,17.2a2.968,2.968,0,0,0-3.2,2.957v1.686A2.966,2.966,0,0,0,4.4,24.8V77.215H3.509a3.509,3.509,0,1,0,0,7.019H68.361a3.509,3.509,0,1,0,0-7.018ZM9.222,20.155a.86.86,0,0,1,.928-.858l27.266,2.137a.865.865,0,0,1,.793.858v1.946L9.222,21.966V20.155ZM6.506,24.8a.86.86,0,0,1,.928-.858l32.7,2.563a.865.865,0,0,1,.793.858V77.215H37.983V62.142A1.74,1.74,0,0,0,36.246,60.4H26.465a1.74,1.74,0,0,0-1.738,1.738v6.83a1.053,1.053,0,1,0,2.106,0V62.509h9.045V77.215H26.833V73.893a1.053,1.053,0,1,0-2.106,0v3.322H6.506ZM68.361,82.128H3.509a1.4,1.4,0,0,1,0-2.807H68.361a1.4,1.4,0,0,1,0,2.807Z" transform="translate(0 -17.188)" />
        <path id="Path_130" data-name="Path 130" d="M64.78,120.614h4.261a1.819,1.819,0,0,0,1.817-1.817v-3.279a1.819,1.819,0,0,0-1.817-1.817H64.78a1.819,1.819,0,0,0-1.817,1.817V118.8A1.819,1.819,0,0,0,64.78,120.614Zm.289-4.807h3.684v2.7H65.069Z" transform="translate(-54.125 -100.154)" />
        <path id="Path_131" data-name="Path 131" d="M140.474,120.614h4.261a1.819,1.819,0,0,0,1.817-1.817v-3.279a1.819,1.819,0,0,0-1.817-1.817h-4.261a1.819,1.819,0,0,0-1.817,1.817V118.8A1.819,1.819,0,0,0,140.474,120.614Zm.289-4.807h3.684v2.7h-3.684Z" transform="translate(-119.193 -100.154)" />
        <path id="Path_132" data-name="Path 132" d="M216.167,120.614h4.261a1.819,1.819,0,0,0,1.817-1.817v-3.279a1.819,1.819,0,0,0-1.817-1.817h-4.261a1.819,1.819,0,0,0-1.817,1.817V118.8A1.819,1.819,0,0,0,216.167,120.614Zm.289-4.807h3.684v2.7h-3.684Z" transform="translate(-184.261 -100.154)" />
        <path id="Path_133" data-name="Path 133" d="M64.78,188.05h4.261a1.819,1.819,0,0,0,1.817-1.817v-3.279a1.819,1.819,0,0,0-1.817-1.817H64.78a1.819,1.819,0,0,0-1.817,1.817v3.279A1.819,1.819,0,0,0,64.78,188.05Zm.289-4.807h3.684v2.7H65.069Z" transform="translate(-54.125 -158.124)" />
        <path id="Path_134" data-name="Path 134" d="M140.474,188.05h4.261a1.819,1.819,0,0,0,1.817-1.817v-3.279a1.819,1.819,0,0,0-1.817-1.817h-4.261a1.819,1.819,0,0,0-1.817,1.817v3.279A1.819,1.819,0,0,0,140.474,188.05Zm.289-4.807h3.684v2.7h-3.684Z" transform="translate(-119.193 -158.124)" />
        <path id="Path_135" data-name="Path 135" d="M216.167,188.05h4.261a1.819,1.819,0,0,0,1.817-1.817v-3.279a1.819,1.819,0,0,0-1.817-1.817h-4.261a1.819,1.819,0,0,0-1.817,1.817v3.279A1.819,1.819,0,0,0,216.167,188.05Zm.289-4.807h3.684v2.7h-3.684Z" transform="translate(-184.261 -158.124)" />
        <path id="Path_136" data-name="Path 136" d="M64.78,255.487h4.261a1.819,1.819,0,0,0,1.817-1.817v-3.279a1.819,1.819,0,0,0-1.817-1.817H64.78a1.819,1.819,0,0,0-1.817,1.817v3.279A1.819,1.819,0,0,0,64.78,255.487Zm.289-4.807h3.684v2.7H65.069Z" transform="translate(-54.125 -216.095)" />
        <path id="Path_137" data-name="Path 137" d="M74.416,325.052H64.984a2.024,2.024,0,0,0-2.021,2.021v2.87a2.024,2.024,0,0,0,2.021,2.021h9.431a2.024,2.024,0,0,0,2.021-2.021v-2.87A2.024,2.024,0,0,0,74.416,325.052Zm-.084,4.807H65.069v-2.7h9.263Z" transform="translate(-54.125 -281.836)" />
        <path id="Path_138" data-name="Path 138" d="M140.474,255.487h4.261a1.819,1.819,0,0,0,1.817-1.817v-3.279a1.819,1.819,0,0,0-1.817-1.817h-4.261a1.819,1.819,0,0,0-1.817,1.817v3.279A1.819,1.819,0,0,0,140.474,255.487Zm.289-4.807h3.684v2.7h-3.684Z" transform="translate(-119.193 -216.095)" />
        <path id="Path_139" data-name="Path 139" d="M216.167,255.487h4.261a1.819,1.819,0,0,0,1.817-1.817v-3.279a1.819,1.819,0,0,0-1.817-1.817h-4.261a1.819,1.819,0,0,0-1.817,1.817v3.279A1.819,1.819,0,0,0,216.167,255.487Zm.289-4.807h3.684v2.7h-3.684Z" transform="translate(-184.261 -216.095)" />
        <path id="Path_140" data-name="Path 140" d="M330.524,279.437a1.939,1.939,0,0,0-1.937-1.937h-4.3a1.939,1.939,0,0,0-1.937,1.937v3.41a1.939,1.939,0,0,0,1.937,1.937h4.3a1.939,1.939,0,0,0,1.937-1.937Zm-2.106,3.241h-3.962v-3.072h3.962Z" transform="translate(-277.102 -240.959)" />
        <path id="Path_141" data-name="Path 141" d="M328.587,346.717h-4.3a1.939,1.939,0,0,0-1.937,1.937v3.41A1.939,1.939,0,0,0,324.288,354h4.3a1.939,1.939,0,0,0,1.937-1.937v-3.41A1.939,1.939,0,0,0,328.587,346.717Zm-.169,5.178h-3.962v-3.072h3.962Z" transform="translate(-277.102 -300.46)" />
        <path id="Path_142" data-name="Path 142" d="M400.285,279.437a1.939,1.939,0,0,0-1.937-1.937h-4.3a1.939,1.939,0,0,0-1.937,1.937v3.41a1.939,1.939,0,0,0,1.937,1.937h4.3a1.939,1.939,0,0,0,1.937-1.937Zm-2.106,3.241h-3.961v-3.072h3.961Z" transform="translate(-337.07 -240.959)" />
        <path id="Path_143" data-name="Path 143" d="M398.348,346.717h-4.3a1.939,1.939,0,0,0-1.937,1.937v3.41A1.939,1.939,0,0,0,394.049,354h4.3a1.939,1.939,0,0,0,1.937-1.937v-3.41A1.939,1.939,0,0,0,398.348,346.717Zm-.169,5.178h-3.961v-3.072h3.961Z" transform="translate(-337.07 -300.46)" />
      </g>
    </g>
  </g>
</svg>
