<svg xmlns="http://www.w3.org/2000/svg" width="73.001" height="73.001" viewBox="0 0 73.001 73.001">
  <g id="management" transform="translate(-0.5)">
    <path id="Path_144" data-name="Path 144" d="M92.551,40.151V37.717A1.217,1.217,0,0,0,93.768,36.5V29.2a1.217,1.217,0,0,0-1.217-1.217h-6.57l-.236-.914a22.484,22.484,0,0,0-2.482-5.945l-.487-.814,4.665-4.673a1.206,1.206,0,0,0,0-1.7L82.274,8.76a1.234,1.234,0,0,0-1.7,0L75.9,13.433l-.814-.487a22.535,22.535,0,0,0-5.952-2.483l-.913-.238V3.65A1.217,1.217,0,0,0,67,2.433H59.7A1.217,1.217,0,0,0,58.484,3.65v6.57l-.914.236a22.53,22.53,0,0,0-5.946,2.48l-.814.487L46.138,8.76a1.234,1.234,0,0,0-1.71,0L39.26,13.927a1.208,1.208,0,0,0,0,1.711l4.673,4.673-.487.814a22.482,22.482,0,0,0-2.482,5.945l-.239.914H34.15A1.217,1.217,0,0,0,32.933,29.2v7.3a1.217,1.217,0,0,0,1.217,1.217v2.433A3.65,3.65,0,0,1,30.5,36.5V29.2a3.65,3.65,0,0,1,3.65-3.65h4.708A24.846,24.846,0,0,1,40.882,20.7l-3.346-3.346a3.638,3.638,0,0,1,0-5.151l5.171-5.171a3.726,3.726,0,0,1,5.152,0L51.2,10.381A24.849,24.849,0,0,1,56.05,8.359V3.65A3.65,3.65,0,0,1,59.7,0H67a3.65,3.65,0,0,1,3.65,3.65V8.359A24.854,24.854,0,0,1,75.5,10.382l3.346-3.346a3.727,3.727,0,0,1,5.153,0l5.17,5.169a3.64,3.64,0,0,1,0,5.151L85.819,20.7a24.94,24.94,0,0,1,2.024,4.847h4.708A3.65,3.65,0,0,1,96.2,29.2v7.3a3.65,3.65,0,0,1-3.65,3.65Zm0,0" transform="translate(-26.35)" />
    <path id="Path_145" data-name="Path 145" d="M194.567,147.034h-2.433a14.6,14.6,0,1,0-29.2,0H160.5a17.034,17.034,0,0,1,34.067,0Zm0,0" transform="translate(-140.533 -114.183)" />
    <path id="Path_146" data-name="Path 146" d="M247.8,244.6a7.3,7.3,0,1,1,7.3-7.3A7.3,7.3,0,0,1,247.8,244.6Zm0-12.167a4.867,4.867,0,1,0,4.867,4.867A4.867,4.867,0,0,0,247.8,232.433Zm0,0" transform="translate(-210.8 -202.016)" />
    <path id="Path_147" data-name="Path 147" d="M417.8,284.6a7.3,7.3,0,1,1,7.3-7.3A7.3,7.3,0,0,1,417.8,284.6Zm0-12.167a4.867,4.867,0,1,0,4.867,4.867A4.867,4.867,0,0,0,417.8,272.433Zm0,0" transform="translate(-360.116 -237.15)" />
    <path id="Path_148" data-name="Path 148" d="M77.8,284.6a7.3,7.3,0,1,1,7.3-7.3A7.3,7.3,0,0,1,77.8,284.6Zm0-12.167a4.867,4.867,0,1,0,4.867,4.867A4.867,4.867,0,0,0,77.8,272.433Zm0,0" transform="translate(-61.483 -237.15)" />
    <path id="Path_149" data-name="Path 149" d="M68.714,366.771a10.828,10.828,0,0,0-6.163-1.9H52.817a10.884,10.884,0,0,0-1.766.16,10.918,10.918,0,0,0-2.979-3.092,4.716,4.716,0,0,0-.561-.365A10.865,10.865,0,0,0,41.867,360H32.134a10.828,10.828,0,0,0-9.181,5.027,10.93,10.93,0,0,0-1.769-.16H11.45a10.828,10.828,0,0,0-6.16,1.9A10.95,10.95,0,0,0,.5,375.816v4.867a8.524,8.524,0,0,0,4.955,7.731,8.248,8.248,0,0,0,3.562.786H21.183v-2.433H10.233V373.383H7.8v13.261a5.709,5.709,0,0,1-1.325-.44,6.093,6.093,0,0,1-3.542-5.521v-4.867a8.525,8.525,0,0,1,3.73-7.04A8.415,8.415,0,0,1,11.45,367.3h9.733c.214,0,.421.023.63.037a10.949,10.949,0,0,0-.63,3.613v12.167a6.091,6.091,0,0,0,6.083,6.083h3.65V369.733H28.483v17.034H27.267a3.65,3.65,0,0,1-3.65-3.65V370.949a8.517,8.517,0,0,1,8.517-8.517h9.733a8.5,8.5,0,0,1,4.435,1.252,3.038,3.038,0,0,1,.355.227,8.618,8.618,0,0,1,2.728,3.042,8.5,8.5,0,0,1,1,4v12.167a3.65,3.65,0,0,1-3.65,3.65H45.517V369.733H43.084V389.2h3.65a6.091,6.091,0,0,0,6.083-6.083V370.949a10.975,10.975,0,0,0-.629-3.613c.21-.014.416-.037.629-.037h9.733a8.421,8.421,0,0,1,4.79,1.479,8.527,8.527,0,0,1,3.727,7.038v4.867a6.092,6.092,0,0,1-3.562,5.531,5.6,5.6,0,0,1-1.3.431V373.383H63.767v13.384H52.817V389.2H64.984a8.228,8.228,0,0,0,3.542-.777,8.527,8.527,0,0,0,4.975-7.74v-4.867a10.95,10.95,0,0,0-4.787-9.045Zm0,0" transform="translate(0 -316.199)" />
    <path id="Path_150" data-name="Path 150" d="M260.5,580h9.733v2.433H260.5Zm0,0" transform="translate(-228.366 -509.432)" />
  </g>
</svg>
