<svg xmlns="http://www.w3.org/2000/svg" width="71.988" height="70.984" viewBox="0 0 71.988 70.984">
  <g id="authentication" transform="translate(0 0)">
    <path id="Path_151" data-name="Path 151" d="M56.234,33.068c0-.128.007-19.009.007-19.009L28.12,0,0,14.06V32.685A34.82,34.82,0,0,0,15.528,61.7L28.12,70.1l9.7-6.462A19.106,19.106,0,1,0,56.234,33.067ZM28.12,67.4,16.776,59.835A32.571,32.571,0,0,1,2.249,32.684V15.45L28.12,2.515,53.991,15.45V32.809c-.373-.023-.744-.057-1.125-.057s-.752.035-1.125.057V16.837L28.12,5.028,4.5,16.838V32.684A30.334,30.334,0,0,0,18.025,57.961l10.1,6.726,7.358-4.9a19.062,19.062,0,0,0,1.064,2Zm6.517-9.753L28.12,61.984,19.274,56.09c-.437-.292-.86-.6-1.277-.911V45.125h-2.25v8.166a28.1,28.1,0,0,1-3.374-3.746V43.009a3.374,3.374,0,0,1,2.552-3.272l7.628-1.912A5.618,5.618,0,0,0,27,42.763v4.612h2.25V42.763a5.615,5.615,0,0,0,4.441-4.938l5.007,1.258a19.024,19.024,0,0,0-4.056,18.559ZM22.5,23.754h3.109a11.848,11.848,0,0,0,5.022-1.125h.3l2.812,3.749v4.687L30,33.877h-3.75L22.5,31.065ZM20.34,21.5a4.4,4.4,0,0,1,2.409-3.251,11.358,11.358,0,0,1,7.9-.5l.259.373h1.713a1.125,1.125,0,0,1,1.125,1.125v3.374l-1.687-2.25H30.1l-.237.118A9.591,9.591,0,0,1,25.605,21.5Zm11.155,14.06v1.687a3.374,3.374,0,0,1-6.749,0V35.564l.75.562h5.248Zm2.25-.044V33.877l2.25-1.687V19.254a3.374,3.374,0,0,0-3.374-3.374h-.748c-1.627-.989-5.679-1.189-8.549-.292A7,7,0,0,0,18,22.629v1.125h2.25V32.19l2.25,1.687v1.638l-8.119,2.041a5.614,5.614,0,0,0-4.254,5.453v3.037A28.09,28.09,0,0,1,6.749,32.684V18.228L28.12,7.543,49.491,18.228V32.684c0,.129-.008.258-.009.386a19.033,19.033,0,0,0-8.9,4.169ZM52.866,68.746A16.872,16.872,0,1,1,69.738,51.874,16.872,16.872,0,0,1,52.866,68.746Zm0,0" transform="translate(0 0)" />
    <path id="Path_152" data-name="Path 152" d="M416,136.945h13.5v2.25H416Zm0,0" transform="translate(-357.51 -117.691)" />
    <path id="Path_153" data-name="Path 153" d="M416,168.945h9v2.25h-9Zm0,0" transform="translate(-357.51 -145.191)" />
    <path id="Path_154" data-name="Path 154" d="M416,200.945h4.5v2.25H416Zm0,0" transform="translate(-357.51 -172.692)" />
    <path id="Path_155" data-name="Path 155" d="M283.347,295.232l-3.976-3.976-6.363,6.362,10.339,10.339,17.5-17.5-6.363-6.362Zm0,9.544-7.158-7.158,3.182-3.181,3.976,3.976,11.135-11.135,3.182,3.181Zm0,0" transform="translate(-234.623 -244.154)" />
  </g>
</svg>
