<svg xmlns="http://www.w3.org/2000/svg" width="144.873" height="110.468" viewBox="0 0 144.873 110.468">
  <g id="New_message-amico" data-name="New message-amico" transform="translate(-42.242 -96.113)">
    <g id="freepik--Shadow--inject-68" transform="translate(46.774 133.837)">
      <path id="freepik--shadow--inject-68-2" data-name="freepik--shadow--inject-68" d="M156.243,325.7l41.923-24.2a1.014,1.014,0,0,0,0-1.921l-79.37-45.829a3.676,3.676,0,0,0-3.326,0l-41.923,24.2a1.014,1.014,0,0,0,0,1.921l79.37,45.829a3.676,3.676,0,0,0,3.326,0Z" transform="translate(-72.857 -253.354)" fill="#e0e0e0"/>
    </g>
    <g id="freepik--Plants--inject-68" transform="translate(42.242 129.938)">
      <g id="freepik--plants--inject-68-2" data-name="freepik--plants--inject-68">
        <path id="Path_213" data-name="Path 213" d="M79.354,272.619l3.288-1.9a71.5,71.5,0,0,0,.269-12.488c-.768-7.655-5.7-16.87-11.6-14.708S74,253.49,75.92,259.986,79.354,272.619,79.354,272.619Z" transform="translate(-66.117 -243.206)" fill="#d7be69"/>
        <path id="Path_214" data-name="Path 214" d="M79.354,272.619l3.288-1.9a71.5,71.5,0,0,0,.269-12.488c-.768-7.655-5.7-16.87-11.6-14.708S74,253.49,75.92,259.986,79.354,272.619,79.354,272.619Z" transform="translate(-66.117 -243.206)" opacity="0.15"/>
        <path id="Path_215" data-name="Path 215" d="M86.805,275.685h0a.2.2,0,0,1-.192-.2c.576-17.016-7.874-25.578-7.978-25.663a.2.2,0,0,1,0-.28.2.2,0,0,1,.28,0c.085.088,8.681,8.769,8.1,25.959A.2.2,0,0,1,86.805,275.685Z" transform="translate(-71.847 -247.07)" fill="#fff"/>
        <path id="Path_216" data-name="Path 216" d="M72.559,290.264l2.3-1.352A26.087,26.087,0,0,0,72.9,278.218c-2.063-5.109-7.175-9.346-9.749-8.451s-2.5,2.7-1.241,4.625S70.792,280.865,72.559,290.264Z" transform="translate(-61.058 -259.491)" fill="#d7be69"/>
        <path id="Path_217" data-name="Path 217" d="M77.427,292.075h0a.2.2,0,0,1-.2-.2c.046-10.755-10.056-18.03-10.16-18.1a.2.2,0,0,1-.046-.277.2.2,0,0,1,.277-.046c.1.073,10.371,7.463,10.329,18.438a.2.2,0,0,1-.2.188Z" transform="translate(-64.709 -261.809)" fill="#fff"/>
      </g>
    </g>
    <g id="freepik--Device--inject-68" transform="translate(49.84 129.62)">
      <g id="freepik--device--inject-68-2" data-name="freepik--device--inject-68" transform="translate(0)">
        <g id="freepik--device--inject-68-3" data-name="freepik--device--inject-68">
          <path id="Path_218" data-name="Path 218" d="M200.538,323.889c.6.461.534,1.118-.188,1.536L160.8,348.269a3.188,3.188,0,0,1-2.877,0L82.28,304.606c-.734-.423-.791-1.087-.169-1.536a3.211,3.211,0,0,0-1.271,2.382v1.9a3.192,3.192,0,0,0,1.44,2.5L157.894,353.5a3.173,3.173,0,0,0,2.881,0l39.564-22.84a3.18,3.18,0,0,0,1.44-2.493v-1.921A3.223,3.223,0,0,0,200.538,323.889Z" transform="translate(-80.84 -279.757)" fill="#455a64"/>
          <path id="Path_219" data-name="Path 219" d="M201.721,286.383,126.085,242.72a3.188,3.188,0,0,0-2.877,0L83.644,265.567a.875.875,0,0,0,0,1.659l75.617,43.663a3.188,3.188,0,0,0,2.877,0L201.7,288.042A.882.882,0,0,0,201.721,286.383Zm-10.26-3.53a.75.75,0,0,1,0,1.421l-35.976,20.777a2.742,2.742,0,0,1-2.47,0l-58.893-34.01a.753.753,0,0,1,0-1.425l35.98-20.773a2.019,2.019,0,0,1,2.07-.23Z" transform="translate(-82.2 -242.377)" fill="#37474f"/>
          <path id="Path_220" data-name="Path 220" d="M82.111,303a3.211,3.211,0,0,0-1.271,2.382v1.9a3.2,3.2,0,0,0,1.44,2.5l75.613,43.674a3,3,0,0,0,1.444.346v-5.232a2.97,2.97,0,0,1-1.44-.342L82.28,304.563C81.547,304.152,81.489,303.476,82.111,303Z" transform="translate(-80.84 -279.714)" fill="#263238"/>
          <path id="Path_221" data-name="Path 221" d="M142.279,276.7a.588.588,0,0,0,0-1.114,2.132,2.132,0,0,0-1.921,0,.588.588,0,0,0,0,1.114A2.132,2.132,0,0,0,142.279,276.7Z" transform="translate(-117.249 -262.688)"/>
          <path id="Path_222" data-name="Path 222" d="M327.844,382.543a1.382,1.382,0,0,0,0-2.62,4.993,4.993,0,0,0-4.544,0,1.382,1.382,0,0,0,0,2.62,4.994,4.994,0,0,0,4.544,0Z" transform="translate(-229.587 -326.753)" fill="none" stroke="#e6e6e6" stroke-miterlimit="10" stroke-width="1"/>
          <path id="Path_223" data-name="Path 223" d="M140.538,279.861l7.452-4.3c.442-.257.465-.661.05-.9a1.732,1.732,0,0,0-1.544.027l-7.452,4.3c-.442.257-.465.661-.05.9A1.733,1.733,0,0,0,140.538,279.861Z" transform="translate(-116.473 -262.156)"/>
          <path id="Path_224" data-name="Path 224" d="M149.113,258.329a2.01,2.01,0,0,0-2.07.23l-35.98,20.773a.753.753,0,0,0,0,1.425l58.877,33.99a2.743,2.743,0,0,0,2.47,0l35.976-20.777a.749.749,0,0,0,0-1.421Z" transform="translate(-99.139 -252.078)" fill="#d7be69"/>
          <path id="Path_225" data-name="Path 225" d="M149.113,258.329a2.01,2.01,0,0,0-2.07.23l-35.98,20.773a.753.753,0,0,0,0,1.425l58.877,33.99a2.743,2.743,0,0,0,2.47,0l35.976-20.777a.749.749,0,0,0,0-1.421Z" transform="translate(-99.139 -252.078)" fill="#fff" opacity="0.85"/>
        </g>
        <path id="Path_226" data-name="Path 226" d="M121.958,317.459l-.384-.223a.092.092,0,0,1,0-.173l.042-.023a.319.319,0,0,1,.3,0l.384.219c.081.05.081.127,0,.173l-.042.027A.342.342,0,0,1,121.958,317.459Z" transform="translate(-105.89 -288.338)" fill="#455a64"/>
        <path id="Path_227" data-name="Path 227" d="M123.288,316.175l-.665-.384c-.081-.046-.081-.123,0-.173l.042-.023a.342.342,0,0,1,.3,0l.664.384c.081.046.081.123,0,.173l-.042.023A.342.342,0,0,1,123.288,316.175Z" transform="translate(-106.536 -287.449)" fill="#455a64"/>
        <path id="Path_228" data-name="Path 228" d="M124.619,314.886l-.941-.542c-.085-.05-.085-.127,0-.173l.042-.027a.342.342,0,0,1,.3,0l.941.545a.092.092,0,0,1,0,.173l-.042.023A.319.319,0,0,1,124.619,314.886Z" transform="translate(-107.184 -286.556)" fill="#455a64"/>
        <path id="Path_229" data-name="Path 229" d="M125.293,313.229l-1.625-.941c-.085-.046-.085-.123,0-.173l.042-.023a.33.33,0,0,1,.3,0l1.621.937c.085.05.085.127,0,.173l-.038.027A.342.342,0,0,1,125.293,313.229Z" transform="translate(-107.178 -285.291)" fill="#455a64"/>
        <path id="Path_230" data-name="Path 230" d="M130.933,310.944a.1.1,0,0,1-.073-.019l-.238-.138-.768.442a.1.1,0,0,1-.111,0l-.088-.05-.038-.027v-.038l-.038-.964a.118.118,0,0,1,0-.042.134.134,0,0,1,.046-.035l.1-.061a.242.242,0,0,1,.088-.031.161.161,0,0,1,.081.023l.834.48.169-.1a.188.188,0,0,1,.085-.031.138.138,0,0,1,.077.023l.058.035a.036.036,0,0,1,.035.042c0,.015,0,.027-.05.046l-.169.1.238.138a.036.036,0,0,1,.035.042c0,.015-.019.031-.054.05l-.131.073A.161.161,0,0,1,130.933,310.944Zm-.465-.3-.6-.342.038.665Z" transform="translate(-110.855 -284.013)" fill="#455a64"/>
        <path id="Path_231" data-name="Path 231" d="M133.341,308.716a1.39,1.39,0,0,1-.768-.188c-.238-.138-.346-.288-.326-.449s.169-.319.442-.476a2.083,2.083,0,0,1,.338-.161,1.666,1.666,0,0,1,.319-.088.069.069,0,0,1,.05,0,.038.038,0,0,1,0,.019l.035.1a.023.023,0,0,1,0,.031h-.042a1.463,1.463,0,0,0-.469.181c-.184.1-.284.215-.3.326s.069.223.254.327a1.021,1.021,0,0,0,.561.15,1.153,1.153,0,0,0,.553-.165,1.7,1.7,0,0,0,.173-.115.532.532,0,0,0,.115-.111l-.384-.223-.319.184a.242.242,0,0,1-.088.031.157.157,0,0,1-.077-.023l-.054-.031q-.038-.023-.035-.046a.194.194,0,0,1,.05-.046l.511-.3a.215.215,0,0,1,.1-.031.165.165,0,0,1,.088.027l.553.319a.084.084,0,0,1,.038.031v.035a1.206,1.206,0,0,1-.484.419A1.8,1.8,0,0,1,133.341,308.716Z" transform="translate(-112.499 -282.391)" fill="#455a64"/>
        <path id="Path_232" data-name="Path 232" d="M162.7,290.364l.9.522a.277.277,0,0,0,.246,0l.91-.522c.065-.042.065-.1,0-.142l-.906-.522a.254.254,0,0,0-.246,0l-.907.522C162.628,290.26,162.628,290.321,162.7,290.364Z" transform="translate(-131.222 -271.502)" fill="#455a64"/>
        <path id="Path_233" data-name="Path 233" d="M162.966,289.494a.841.841,0,0,0-.384-.085.818.818,0,0,0-.384.085c-.177.1-.177.261,0,.361l.311.181.227-.046-.311-.177a.146.146,0,0,1,0-.273.35.35,0,0,1,.161-.042.284.284,0,0,1,.157.042l.311.181.23-.046Z" transform="translate(-130.865 -271.343)" fill="#455a64"/>
        <path id="Path_234" data-name="Path 234" d="M202.682,264.819a.88.88,0,0,0-.438.1l-2.3,1.325c-.2.111-.2.292,0,.407l.837.48a.88.88,0,0,0,.438.1,1.28,1.28,0,0,0,.211-.019.637.637,0,0,0,.223-.081l2.3-1.321c.2-.115.2-.3,0-.407l-.837-.484A.864.864,0,0,0,202.682,264.819Zm-1.46,2.3a.4.4,0,0,1-.188-.05l-.834-.484a.165.165,0,0,1,0-.311l2.3-1.321a.35.35,0,0,1,.119-.046h.069a.385.385,0,0,1,.184.054l.834.48a.165.165,0,0,1,0,.311l-2.3,1.325a.384.384,0,0,1-.184.054Z" transform="translate(-154.099 -256.198)" fill="#455a64"/>
        <path id="Path_235" data-name="Path 235" d="M202.28,267.394l-.031-.019-.768-.434a.123.123,0,0,1,0-.23l2.067-1.191a.13.13,0,0,1,.042-.019l.031.019.768.434a.123.123,0,0,1,0,.227l-2.067,1.195Z" transform="translate(-155.092 -256.618)" fill="#455a64"/>
        <path id="Path_236" data-name="Path 236" d="M208.544,264.9a.58.58,0,0,1,.465.088l.154.092c.173.1.246.219.165.273l-.15.092-.768-.457Z" transform="translate(-159.408 -256.236)" fill="#455a64"/>
        <path id="Path_237" data-name="Path 237" d="M167.755,316.937a3.7,3.7,0,0,0,1.613-.446c.937-.542,1.179-1.279-.307-2.2a1.836,1.836,0,0,1-.976,1.314,3.892,3.892,0,0,1-3.9.254c-1.172-.672-.768-1.671.515-2.408a5.432,5.432,0,0,1,5.416.019c2.17,1.252,1.682,2.577.146,3.457a6.111,6.111,0,0,1-2.62.768Zm.542-3.05a3.04,3.04,0,0,0-2.808,0c-.611.349-.734.86-.058,1.248a2.112,2.112,0,0,0,2.182-.1A1.187,1.187,0,0,0,168.3,313.887Z" transform="translate(-131.744 -285.707)" fill="#455a64"/>
        <path id="Path_238" data-name="Path 238" d="M182.278,309.059a1.682,1.682,0,0,1,1.536-.108c.384.23.311.615-.181.9a1.705,1.705,0,0,1-1.563.111C181.674,309.731,181.774,309.343,182.278,309.059Zm3,1.732a1.678,1.678,0,0,1,1.536-.1c.384.227.311.611-.181.895a1.717,1.717,0,0,1-1.563.111c-.392-.227-.3-.618.2-.887Z" transform="translate(-143.036 -283.295)" fill="#455a64"/>
        <path id="Path_239" data-name="Path 239" d="M189.788,302.474c-1.886-1.091-1.886-2.224-.342-3.119a5.3,5.3,0,0,1,5.4.2c1.882,1.087,1.921,2.255.384,3.15A5.377,5.377,0,0,1,189.788,302.474Zm3.768-2.178c-1.579-.91-2.593-.9-3.319-.484s-.741,1.006.837,1.921,2.662.93,3.376.519S195.139,301.21,193.557,300.3Z" transform="translate(-147.04 -277.071)" fill="#455a64"/>
        <path id="Path_240" data-name="Path 240" d="M205.423,293.452c-1.89-1.091-1.89-2.224-.346-3.115a5.319,5.319,0,0,1,5.4.2c1.878,1.083,1.944,2.259.384,3.15A5.379,5.379,0,0,1,205.423,293.452Zm3.768-2.174c-1.583-.914-2.6-.906-3.323-.488s-.741,1.006.841,1.921,2.662.926,3.373.515S210.77,292.188,209.191,291.278Z" transform="translate(-156.667 -271.518)" fill="#455a64"/>
        <path id="Path_241" data-name="Path 241" d="M181.793,317.216l30.222-17.447a2.555,2.555,0,0,1,2.3,0l7.725,4.46c.638.384.638.964,0,1.333l-30.211,17.447a2.554,2.554,0,0,1-2.3,0l-7.736-4.46A.7.7,0,0,1,181.793,317.216Z" transform="translate(-142.721 -277.555)" fill="#d7be69"/>
        <path id="Path_242" data-name="Path 242" d="M190.657,338.66l5.408,3.119a1.083,1.083,0,0,0,.995,0l7.97-4.609c.277-.161.277-.419,0-.576l-5.408-3.123a1.107,1.107,0,0,0-.995,0l-7.97,4.609a.3.3,0,0,0,0,.58Z" transform="translate(-148.342 -298.407)" fill="#fafafa"/>
        <path id="Path_243" data-name="Path 243" d="M198.82,337.175l6.411-.253-6.388-.1.257-3.446-1.049,4.252-7.6.753,6.207-.292-.154,3.822.476-3.837,1.778-.085Z" transform="translate(-148.347 -298.424)" fill="#d7be69"/>
        <path id="Path_244" data-name="Path 244" d="M220.565,321.98l7.809-4.49a1.39,1.39,0,0,1,1.256,0c.342.2.33.519-.027.726l-7.809,4.49a1.391,1.391,0,0,1-1.256,0C220.2,322.51,220.215,322.2,220.565,321.98Z" transform="translate(-166.727 -288.545)" fill="#fafafa"/>
        <path id="Path_245" data-name="Path 245" d="M226.827,318.1l15.826-9.146a1.39,1.39,0,0,1,1.256,0c.342.2.33.522-.027.726l-15.826,9.146a1.4,1.4,0,0,1-1.26,0C226.458,318.637,226.47,318.314,226.827,318.1Z" transform="translate(-170.581 -283.286)" fill="#fafafa"/>
        <path id="Path_246" data-name="Path 246" d="M233.08,321.735l15.829-9.146a1.391,1.391,0,0,1,1.256,0c.338.2.327.522-.027.726l-15.829,9.146a1.39,1.39,0,0,1-1.256,0C232.711,322.258,232.727,321.943,233.08,321.735Z" transform="translate(-174.433 -285.527)" fill="#fafafa"/>
      </g>
    </g>
    <g id="freepik--Message--inject-68" transform="translate(121.35 96.113)">
      <g id="freepik--Envelope--inject-68" transform="translate(0)">
        <path id="Path_247" data-name="Path 247" d="M173.55,134.117l51.233-29.577,2.051,1.183a2.14,2.14,0,0,1,.96,1.671v37.793a2.136,2.136,0,0,1-.96,1.671l-49.309,28.463a2.155,2.155,0,0,1-1.921,0l-1.083-.626a2.147,2.147,0,0,1-.964-1.671Z" transform="translate(-173.542 -90.7)" fill="#d7be69"/>
        <path id="Path_248" data-name="Path 248" d="M173.55,134.117l51.233-29.577,2.051,1.183a2.14,2.14,0,0,1,.96,1.671v37.793a2.136,2.136,0,0,1-.96,1.671l-49.309,28.463a2.155,2.155,0,0,1-1.921,0l-1.083-.626a2.147,2.147,0,0,1-.964-1.671Z" transform="translate(-173.542 -90.7)" opacity="0.05"/>
        <path id="Path_249" data-name="Path 249" d="M224.5,81.273l.211-.115-.8-.461h0a1.537,1.537,0,0,0-.215-.1l-22.548-8.355a1.536,1.536,0,0,0-1.729.549L174.2,109.624a4.395,4.395,0,0,0-.649,2.1v2.447l.768.453L224.772,84.6V82.148A1.667,1.667,0,0,0,224.5,81.273Z" transform="translate(-173.542 -70.759)" fill="#d7be69"/>
        <path id="Path_250" data-name="Path 250" d="M200.773,73.543a1.276,1.276,0,0,0-.261.277l-25.225,36.833a3.918,3.918,0,0,0-.469,1.052l-.768-.453a5.029,5.029,0,0,1,.2-.557h0c.035-.077.069-.15.108-.223v-.035a2.005,2.005,0,0,1,.134-.223l25.233-36.848a1.223,1.223,0,0,1,.127-.154l.134-.123Z" transform="translate(-173.85 -71.33)" opacity="0.1"/>
        <path id="Path_251" data-name="Path 251" d="M266.622,81.163a1.232,1.232,0,0,0-.215-.1L243.856,72.7a1.537,1.537,0,0,0-1.467.277l-.768-.453a1.563,1.563,0,0,1,1.471-.277L265.639,80.6a1.194,1.194,0,0,1,.211.1Z" transform="translate(-215.465 -70.765)" fill="#fff" opacity="0.35"/>
        <path id="Path_252" data-name="Path 252" d="M174.89,169.913a2.449,2.449,0,0,1,.134-.223A2.435,2.435,0,0,0,174.89,169.913Z" transform="translate(-174.368 -130.825)" fill="#d7be69"/>
        <path id="Path_253" data-name="Path 253" d="M241.24,73.213a1.024,1.024,0,0,1,.134-.123A.826.826,0,0,0,241.24,73.213Z" transform="translate(-215.231 -71.331)" fill="#d7be69"/>
        <path id="Path_254" data-name="Path 254" d="M174,171.541a5.1,5.1,0,0,1,.2-.561,5.1,5.1,0,0,0-.2.561Z" transform="translate(-173.819 -131.619)" fill="#d7be69"/>
        <path id="Path_255" data-name="Path 255" d="M174.56,170.589c.035-.077.073-.15.108-.219C174.633,170.439,174.595,170.512,174.56,170.589Z" transform="translate(-174.164 -131.244)" fill="#d7be69"/>
        <path id="Path_256" data-name="Path 256" d="M174.54,171Z" transform="translate(-174.152 -131.632)" opacity="0.2"/>
        <path id="Path_257" data-name="Path 257" d="M174.01,172.44Z" transform="translate(-173.826 -132.519)" opacity="0.2"/>
        <path id="Path_258" data-name="Path 258" d="M241.59,73.09Z" transform="translate(-215.447 -71.331)" opacity="0.2"/>
        <path id="Path_259" data-name="Path 259" d="M174.84,170.305v-.038C174.84,170.255,174.848,170.293,174.84,170.305Z" transform="translate(-174.337 -131.179)" opacity="0.2"/>
        <path id="Path_260" data-name="Path 260" d="M240.91,73.56a.935.935,0,0,1,.127-.15A.769.769,0,0,0,240.91,73.56Z" transform="translate(-215.028 -71.528)" opacity="0.2"/>
        <path id="Path_261" data-name="Path 261" d="M201.454,74l-25.221,36.837a4.329,4.329,0,0,0-.653,2.1v2.447l51.234-29.577V83.354a1.782,1.782,0,0,0-1.079-1.536l-22.548-8.355A1.556,1.556,0,0,0,201.454,74Z" transform="translate(-174.793 -71.512)" fill="#d7be69"/>
        <path id="Path_262" data-name="Path 262" d="M186.839,187.973l-1.644-.949h0a.991.991,0,0,1-.384-.895V134.9a2.942,2.942,0,0,1,.461-1.464l1.671.96a2.92,2.92,0,0,0-.461,1.471v51.207A1,1,0,0,0,186.839,187.973Z" transform="translate(-180.474 -108.499)" fill="#e0e0e0"/>
        <path id="Path_263" data-name="Path 263" d="M190.51,95l41.154-23.754c.768-.453,1.41-.088,1.41.814v51.21a3.115,3.115,0,0,1-1.41,2.447l-41.154,23.75c-.768.449-1.41.085-1.41-.818v-51.2A3.127,3.127,0,0,1,190.51,95Z" transform="translate(-183.119 -70.076)" fill="#f0f0f0"/>
        <path id="Path_264" data-name="Path 264" d="M229.046,68.617l1.613.937a1,1,0,0,0-.945.134l-41.15,23.75a2.719,2.719,0,0,0-.953.972l-1.671-.96a2.834,2.834,0,0,1,.949-.979L228.043,68.7a.968.968,0,0,1,1-.088Z" transform="translate(-181.173 -68.509)" fill="#fafafa"/>
        <path id="Path_265" data-name="Path 265" d="M199.794,108.506l34.221-19.759c.461-.265.834-.077.834.423a1.782,1.782,0,0,1-.834,1.379l-34.221,19.759c-.461.265-.834.077-.834-.419A1.782,1.782,0,0,1,199.794,108.506Z" transform="translate(-189.192 -80.9)" fill="#e0e0e0"/>
        <path id="Path_266" data-name="Path 266" d="M199.794,117.856,234.014,98.1c.461-.265.834-.077.834.423a1.782,1.782,0,0,1-.834,1.379l-34.221,19.759c-.461.265-.834.077-.834-.419a1.782,1.782,0,0,1,.834-1.383Z" transform="translate(-189.192 -86.658)" fill="#e0e0e0"/>
        <path id="Path_267" data-name="Path 267" d="M199.794,127.206l34.221-19.759c.461-.265.834-.077.834.419a1.782,1.782,0,0,1-.834,1.383l-34.221,19.759c-.461.265-.834.077-.834-.419A1.782,1.782,0,0,1,199.794,127.206Z" transform="translate(-189.192 -92.417)" fill="#e0e0e0"/>
        <path id="Path_268" data-name="Path 268" d="M199.794,136.562l34.221-19.755c.461-.265.834-.077.834.419a1.782,1.782,0,0,1-.834,1.383l-34.221,19.759c-.461.265-.834.077-.834-.423A1.782,1.782,0,0,1,199.794,136.562Z" transform="translate(-189.192 -98.181)" fill="#e0e0e0"/>
        <path id="Path_269" data-name="Path 269" d="M199.794,145.906l34.221-19.759c.461-.265.834-.077.834.419a1.782,1.782,0,0,1-.834,1.383l-34.221,19.759c-.461.265-.834.077-.834-.423A1.782,1.782,0,0,1,199.794,145.906Z" transform="translate(-189.192 -103.934)" fill="#e0e0e0"/>
        <path id="Path_270" data-name="Path 270" d="M199.794,155.256,234.014,135.5c.461-.265.834-.077.834.419a1.782,1.782,0,0,1-.834,1.383l-34.221,19.759c-.461.265-.834.077-.834-.423A1.782,1.782,0,0,1,199.794,155.256Z" transform="translate(-189.192 -109.692)" fill="#e0e0e0"/>
        <path id="Path_271" data-name="Path 271" d="M199.794,164.582l34.221-19.774c.461-.265.834-.077.834.419a1.782,1.782,0,0,1-.834,1.383l-34.221,19.759c-.461.265-.834.077-.834-.423A1.782,1.782,0,0,1,199.794,164.582Z" transform="translate(-189.192 -115.426)" fill="#e0e0e0"/>
        <path id="Path_272" data-name="Path 272" d="M199.794,173.954l34.221-19.759c.461-.269.834-.077.834.419a1.782,1.782,0,0,1-.834,1.383l-34.221,19.759c-.461.265-.834.077-.834-.423A1.782,1.782,0,0,1,199.794,173.954Z" transform="translate(-189.192 -121.206)" fill="#e0e0e0"/>
        <path id="Path_273" data-name="Path 273" d="M230.685,195.321a.465.465,0,0,1-.054.077l-21.349-9.468a3.676,3.676,0,0,0-4.609,1.421l-22.824,36.622-.845.488h0a.688.688,0,0,1-.653.073l23.473-37.667a3.688,3.688,0,0,1,4.609-1.425Z" transform="translate(-177.73 -140.334)" fill="#d7be69"/>
        <path id="Path_274" data-name="Path 274" d="M202.551,198.792l.054-.046-20.777,33.341-.845.488h0a.7.7,0,0,1-.653.073L201.714,198.3Z" transform="translate(-177.718 -148.445)" fill="#fff" opacity="0.4"/>
        <path id="Path_275" data-name="Path 275" d="M268.321,195.327a.462.462,0,0,1-.054.077l-21.353-9.472a3.676,3.676,0,0,0-4.609,1.421l-.845-.492a3.688,3.688,0,0,1,4.609-1.414Z" transform="translate(-215.367 -140.337)" fill="#fff" opacity="0.4"/>
        <path id="Path_276" data-name="Path 276" d="M233.427,107.869h0c-.046-.277-.192-.353-.384-.223a1.109,1.109,0,0,0-.246.254l-.108.15L211.636,137.38l-3.146,4.383a1.794,1.794,0,0,1-1.732.649l-2.716-.645L183.3,136.835a1.057,1.057,0,0,0-.423,0,.769.769,0,0,0-.158.05l.572-.33,19.974,4.751,2.723.622a1.786,1.786,0,0,0,1.732-.649l3.146-4.379,21.173-29.481a.845.845,0,0,1,.238-.219l-1.821-1.049.768-.442,1.268.73A2.2,2.2,0,0,1,233.427,107.869Z" transform="translate(-179.19 -91.421)" fill="#d7be69"/>
        <path id="Path_277" data-name="Path 277" d="M245.824,187.476l-3.146,4.383a1.794,1.794,0,0,1-1.732.649l-2.716-.645.054-.046.131-.207,1.778.423a1.786,1.786,0,0,0,1.732-.649l3.115-4.333Z" transform="translate(-213.378 -141.517)" fill="#fff" opacity="0.4"/>
        <path id="Path_278" data-name="Path 278" d="M277.561,106.44l-1.268-.73-.768.442,1.832,1.056h0a.861.861,0,0,0-.238.219l-21.169,29.481-.031.042h0l.768.426,21.08-29.327.108-.15a1.11,1.11,0,0,1,.246-.254c.188-.131.334-.054.384.223h0a2.2,2.2,0,0,0-.945-1.429Z" transform="translate(-224.273 -91.421)" opacity="0.1"/>
        <path id="Path_279" data-name="Path 279" d="M178.067,184.152l-4.517-2.612v38.907a2.147,2.147,0,0,0,.964,1.671l1.083.626a2.155,2.155,0,0,0,1.921,0l.542-.315Z" transform="translate(-173.542 -138.123)" fill="#d7be69"/>
        <path id="Path_280" data-name="Path 280" d="M178.067,184.152l-4.517-2.612v38.907a2.147,2.147,0,0,0,.964,1.671l1.083.626a2.155,2.155,0,0,0,1.921,0l.542-.315Z" transform="translate(-173.542 -138.123)" opacity="0.15"/>
        <path id="Path_281" data-name="Path 281" d="M231.9,111.8v37.382a1.921,1.921,0,0,1-.3.976,2,2,0,0,1-.565.63l-.035.023-.065.042-49.305,28.463h0a.912.912,0,0,1-.188.088,1.233,1.233,0,0,1,0-.173V141.454a.837.837,0,0,1,1.083-.853l20.742,4.932,2.716.645a1.794,1.794,0,0,0,1.732-.649l3.131-4.4Z" transform="translate(-178.403 -95.171)" fill="#455a64"/>
        <path id="Path_282" data-name="Path 282" d="M232.659,111.128v37.793a1.963,1.963,0,0,1-.3.976,2.105,2.105,0,0,1-.565.634l-.038.019a.583.583,0,0,1-.061.042L182.39,179.04h0a.688.688,0,0,1-.657.077.584.584,0,0,1-.288-.461,1.233,1.233,0,0,1,0-.173V140.705a.837.837,0,0,1,1.083-.853l20.742,4.932,2.716.645a1.794,1.794,0,0,0,1.732-.649l3.131-4.4,21.069-29.331.108-.15C232.36,110.406,232.659,110.5,232.659,111.128Z" transform="translate(-178.403 -94.423)" fill="#d7be69"/>
        <path id="Path_283" data-name="Path 283" d="M278.846,198.354l.061-.042.038-.019a2.106,2.106,0,0,0,.565-.634,1.97,1.97,0,0,0,.3-.956L258,188.16l14.6,13.8Z" transform="translate(-225.554 -142.2)" fill="#d7be69"/>
        <path id="Path_284" data-name="Path 284" d="M278.846,198.354l.061-.042.038-.019a2.106,2.106,0,0,0,.565-.634,1.97,1.97,0,0,0,.3-.956L258,188.16l14.6,13.8Z" transform="translate(-225.554 -142.2)" opacity="0.2"/>
        <path id="Path_285" data-name="Path 285" d="M181.393,233.3a.664.664,0,0,0,.3.634.688.688,0,0,0,.657-.077h0l16.974-9.8L203.2,199.59l-21.806,33.084Z" transform="translate(-178.37 -149.24)" fill="#d7be69"/>
        <path id="Path_286" data-name="Path 286" d="M205.29,190.155l-23.608,37.682a.665.665,0,0,1-.3-.634v-.626l20.831-33.311.161-.257,2.07-3.319h0Z" transform="translate(-178.364 -143.142)" opacity="0.15"/>
        <path id="Path_287" data-name="Path 287" d="M232.827,196.535a2.1,2.1,0,0,1-.565.634l-.038.019-49.367,28.505h0a.688.688,0,0,1-.657.077l23.608-37.693a3.711,3.711,0,0,1,4.644-1.425Z" transform="translate(-178.87 -141.076)" fill="#d7be69"/>
        <path id="Path_288" data-name="Path 288" d="M232.82,212.247a2,2,0,0,1-.565.63l-.035.023-49.374,28.505h0a.7.7,0,0,1-.657.073l.657-1.045,48.518-28.017.038-.023a1.963,1.963,0,0,0,.511-.553Z" transform="translate(-178.864 -156.784)" fill="#d7be69"/>
        <path id="Path_289" data-name="Path 289" d="M173.711,172.44l.768.453a3.841,3.841,0,0,0-.181,1.052v2.443l-.768-.453v-2.447A3.841,3.841,0,0,1,173.711,172.44Z" transform="translate(-173.53 -132.519)" opacity="0.15"/>
        <path id="Path_290" data-name="Path 290" d="M179.613,183.421l-.722-.173-.572.33-.791-.457L175.58,182l.757-.449Z" transform="translate(-174.793 -138.129)" fill="#d7be69"/>
        <path id="Path_291" data-name="Path 291" d="M179.6,183.427h0l-3.273-1.867-.768.449,1.947,1.122.791.457h0a.5.5,0,0,1,.146-.046,1.056,1.056,0,0,1,.423,0l1.594.384,18.169,4.333.161-.257Z" transform="translate(-174.78 -138.135)" opacity="0.1"/>
      </g>
      <g id="freepik--Notification--inject-68" transform="translate(44.68 44.095)">
        <path id="Path_292" data-name="Path 292" d="M308.556,186.008,304.91,183.9h0l-.031-.019h0c-1.59-.9-3.776-.768-6.192.634-4.863,2.808-8.808,9.637-8.808,15.253,0,2.8.987,4.775,2.574,5.7h0l3.323,1.921.768-1.3a8.9,8.9,0,0,0,2.527-.983c4.863-2.808,8.808-9.638,8.808-15.253a9.375,9.375,0,0,0-.277-2.251Z" transform="translate(-289.868 -183.306)" fill="#f28f8f"/>
        <path id="Path_293" data-name="Path 293" d="M290.184,218.46a14.169,14.169,0,0,0-.334,2.958c0,2.8.987,4.775,2.574,5.7h0l3.323,1.921.768-1.3a8.9,8.9,0,0,0,2.527-.983,14.091,14.091,0,0,0,2.4-1.771Z" transform="translate(-289.85 -204.957)" opacity="0.15"/>
        <path id="Path_294" data-name="Path 294" d="M307.688,189.722c-4.863,2.808-8.808,9.637-8.808,15.253s3.945,7.894,8.808,5.086,8.808-9.637,8.808-15.253S312.555,186.914,307.688,189.722Z" transform="translate(-295.411 -186.517)" fill="#ffa8a7"/>
        <path id="Path_295" data-name="Path 295" d="M317.906,203.842v-2.159c0-2.462-1.5-3.6-3.342-2.528h0a8.008,8.008,0,0,0-3.346,6.388v1.921a7.651,7.651,0,0,1-1.125,3.768h0a2.085,2.085,0,0,0-.273.987h0c0,.618.384.907.841.638l7.809-4.51a2.02,2.02,0,0,0,.841-1.609h0a.788.788,0,0,0-.246-.653h0A2.248,2.248,0,0,1,317.906,203.842Z" transform="translate(-302.149 -192.82)" fill="#fff"/>
        <path id="Path_296" data-name="Path 296" d="M321.2,229a3.87,3.87,0,0,1-1.6,3.073c-.883.519-1.606-.031-1.606-1.21Z" transform="translate(-307.181 -211.448)" fill="#fff"/>
      </g>
    </g>
  </g>
</svg>
