<svg xmlns="http://www.w3.org/2000/svg" width="28.995" height="28.996" viewBox="0 0 28.995 28.996">
  <path id="add-contact" d="M.187,28.853a.453.453,0,0,0,.32.133H21.331a.453.453,0,0,0,.453-.454c0-1.586.016-3.194.054-4.779,0-.012,0-.025,0-.037a4.756,4.756,0,0,0-.93-3.081,5.37,5.37,0,0,0-2.7-1.325c-2.738-.765-3.844-1.036-4.339-1.135l-.39-1.455a5.957,5.957,0,0,0,3.09-3.559l.04,0H16.9A2.078,2.078,0,0,0,18.254,9.5a.451.451,0,0,0,.071-.162c.1-.443.183-.907.252-1.379.021-.144.042-.278.062-.406a4.129,4.129,0,0,0-.4-3.149A8.326,8.326,0,0,0,3,5.635a.454.454,0,0,0-.018.073,7.256,7.256,0,0,0,.606,4.123A2.077,2.077,0,0,0,5.2,13.161a6.02,6.02,0,0,0,2.047,2.913,5.956,5.956,0,0,0,1.1.671l-.383,1.429c-.5.1-1.6.371-4.339,1.135a5.373,5.373,0,0,0-2.7,1.325A4.758,4.758,0,0,0,0,23.717c0,.012,0,.025,0,.037.039,1.585.057,3.193.054,4.779a.453.453,0,0,0,.133.321Zm9.645-.773.6-5.123h1.127l.6,5.123Zm1.139-7.274.837.557a.456.456,0,0,0-.031.081l-.163.608H10.377l-.188-.7c0-.007,0-.013-.006-.019Zm-2.1-2.489L9.2,17.068a5.976,5.976,0,0,0,3.43-.018l.355,1.326-2.016,1.341Zm6.41,1.133c.655.172,1.528.409,2.689.733,2.269.633,2.818,1.04,2.966,3.568-.035,1.436-.053,2.89-.054,4.33h-7.8l-.65-5.542.174-.65.291.194a.453.453,0,0,0,.62-.115l1.711-2.405a.452.452,0,0,0,.058-.112Zm-1.664-.4c.149.028.383.079.741.167l-1.33,1.87-1.236-.823ZM16.9,12.256h-.12a5.958,5.958,0,0,0-.1-2.346H16.9a1.173,1.173,0,1,1,0,2.346Zm-11.93-.034A1.172,1.172,0,0,1,5.042,9.93a6.117,6.117,0,0,0-.069,2.292ZM5.331,9H5.25a2.065,2.065,0,0,0-.93.22,6.273,6.273,0,0,1-.446-3.334A7.42,7.42,0,0,1,17.438,4.834a3.267,3.267,0,0,1,.306,2.585c-.02.129-.041.266-.063.412-.063.427-.139.846-.227,1.248A2.072,2.072,0,0,0,16.9,9h-.468l-.049,0c-.711-2.4-1.5-3.634-2.465-3.88a1.806,1.806,0,0,0-1.746.655.455.455,0,0,0-.068.088C10.9,7.905,8.764,8.878,5.748,8.761A.453.453,0,0,0,5.331,9ZM7.8,15.356A5.2,5.2,0,0,1,6.048,9.675c3.175.046,5.465-1.062,6.81-3.293.319-.311.6-.437.842-.377.349.088,1.053.639,1.841,3.335a.444.444,0,0,0,.017.048A5.064,5.064,0,0,1,7.8,15.356Zm.507,3.677,1.846,1.228-1.236.823L7.573,19.193c.379-.092.6-.139.735-.159Zm-4.435,1.15c1.2-.336,2.1-.578,2.76-.752.006.011.013.021.02.031l1.781,2.5a.453.453,0,0,0,.62.115l.334-.222.182.678L8.919,28.08H.961c0-1.44-.019-2.894-.054-4.33.147-2.528.7-2.934,2.966-3.567ZM24.117,9.611A4.878,4.878,0,1,0,29,14.489a4.878,4.878,0,0,0-4.878-4.878Zm0,8.85a3.972,3.972,0,1,1,3.972-3.972A3.972,3.972,0,0,1,24.117,18.461Zm2.955-3.972a.453.453,0,0,1-.453.453H24.57v2.049a.453.453,0,1,1-.906,0V14.942H21.615a.453.453,0,1,1,0-.906h2.049V11.987a.453.453,0,1,1,.906,0v2.049h2.049A.453.453,0,0,1,27.072,14.489Z" />
</svg>
