<svg xmlns="http://www.w3.org/2000/svg" width="28.701" height="25.75" viewBox="0 0 28.701 25.75">
  <g id="alert" transform="translate(0 -26.315)">
    <g id="Group_600" data-name="Group 600" transform="translate(0 26.315)">
      <g id="Group_599" data-name="Group 599" transform="translate(0 0)">
        <path id="Path_581" data-name="Path 581" d="M28.243,47,17.273,28a3.375,3.375,0,0,0-5.845,0L.457,47A3.375,3.375,0,0,0,3.38,52.065H25.32A3.375,3.375,0,0,0,28.243,47Zm-1.456,2.534a1.676,1.676,0,0,1-1.467.847H3.38a1.693,1.693,0,0,1-1.467-2.54l10.97-19a1.693,1.693,0,0,1,2.933,0l10.97,19A1.676,1.676,0,0,1,26.787,49.537Z" transform="translate(0 -26.315)"/>
      </g>
    </g>
    <g id="Group_602" data-name="Group 602" transform="translate(13.509 34.706)">
      <g id="Group_601" data-name="Group 601" transform="translate(0 0)">
        <rect id="Rectangle_295" data-name="Rectangle 295" width="1.681" height="8.407"/>
      </g>
    </g>
    <g id="Group_604" data-name="Group 604" transform="translate(13.229 44.795)">
      <g id="Group_603" data-name="Group 603" transform="translate(0 0)">
        <path id="Path_582" data-name="Path 582" d="M237.123,355.99a1.121,1.121,0,1,0,1.121,1.121A1.122,1.122,0,0,0,237.123,355.99Z" transform="translate(-236.002 -355.99)"/>
      </g>
    </g>
  </g>
</svg>
