<svg id="Group_107" data-name="Group 107" xmlns="http://www.w3.org/2000/svg" width="22" height="20.731" viewBox="0 0 22 20.731">
  <path id="Path_60" data-name="Path 60" d="M21.543,30.622,13.771,16.336a3.223,3.223,0,0,0-5.543,0L.458,30.622A3.221,3.221,0,0,0,3.228,35.49H18.771A3.222,3.222,0,0,0,21.543,30.622ZM11,32.912a1.289,1.289,0,1,1,1.289-1.289A1.291,1.291,0,0,1,11,32.912Zm1.289-5.156a1.289,1.289,0,0,1-2.578,0V21.311a1.289,1.289,0,0,1,2.578,0Z" transform="translate(0 -14.759)" fill="#fff"/>
</svg>
