<svg xmlns="http://www.w3.org/2000/svg" width="18.984" height="24" viewBox="0 0 18.984 24">
  <g id="bell" transform="translate(-53.506 0)">
    <path id="Path_80" data-name="Path 80" d="M204.775,0a2.237,2.237,0,0,0-2.237,2.237,2.229,2.229,0,0,0,.03.32.447.447,0,0,0,.447.383.457.457,0,0,0,.126-.018,5.773,5.773,0,0,1,3.276,0,.458.458,0,0,0,.37-.067.478.478,0,0,0,.2-.326,2.025,2.025,0,0,0,.027-.293A2.237,2.237,0,0,0,204.778,0Z" transform="translate(-141.783)" fill="#f57c00"/>
    <path id="Path_81" data-name="Path 81" d="M187.02,426.667h-5.369a.447.447,0,0,0-.447.447,3.132,3.132,0,0,0,6.263,0A.447.447,0,0,0,187.02,426.667Z" transform="translate(-121.344 -406.246)" fill="#ffa000"/>
    <path id="Path_82" data-name="Path 82" d="M72.313,59.548c-.158-.359-.357-.76-.577-1.2A17.073,17.073,0,0,1,69.492,50.6c0-4.073-2.1-7.062-5.348-7.614a6.276,6.276,0,0,0-5.262,1.577,7.309,7.309,0,0,0-2.4,5.673,16.754,16.754,0,0,1-2.232,8.128c-.215.436-.411.832-.567,1.186a2.054,2.054,0,0,0,.984,2.688,1.93,1.93,0,0,0,.825.181H70.508a2,2,0,0,0,1.982-2.025,2.079,2.079,0,0,0-.176-.844h0Z" transform="translate(0 -41.101)" fill="#ffc107"/>
    <path id="Path_83" data-name="Path 83" d="M103.423,101.281a.5.5,0,0,1-.447-.532.615.615,0,0,1,.047-.238l.144-.336a22.275,22.275,0,0,0,2.195-8.994c0-2.7,1.055-5.847,4.026-5.847a.54.54,0,0,1,0,1.063c-2.906,0-3.132,3.661-3.132,4.784a23.319,23.319,0,0,1-2.293,9.478l-.14.329A.446.446,0,0,1,103.423,101.281Z" transform="translate(-47.395 -81.755)" fill="#ffd54f"/>
  </g>
</svg>
