<svg id="cancel_2_" data-name="cancel (2)" xmlns="http://www.w3.org/2000/svg" width="33.2" height="33.2" viewBox="0 0 33.2 33.2">
  <circle id="Ellipse_45" data-name="Ellipse 45" cx="16.6" cy="16.6" r="16.6" transform="translate(0 0)" fill="#f15249"/>
  <path id="Path_602" data-name="Path 602" d="M141.46,136.523a1.961,1.961,0,0,1,0,2.723l-1.466,1.466a1.961,1.961,0,0,1-2.723,0L125.75,129.192a1.961,1.961,0,0,1,0-2.723l1.519-1.519a1.961,1.961,0,0,1,2.723,0Z" transform="translate(-117.005 -116.257)" fill="#fff"/>
  <path id="Path_603" data-name="Path 603" d="M220.242,216,216,220.242l6.127,6.074a1.961,1.961,0,0,0,2.723,0l1.519-1.519a1.961,1.961,0,0,0,0-2.723Z" transform="translate(-201.861 -201.861)" fill="#d6d6d6"/>
  <path id="Path_604" data-name="Path 604" d="M137.27,125.75a1.961,1.961,0,0,1,2.723,0l1.519,1.519a1.961,1.961,0,0,1,0,2.723L129.939,141.46a1.961,1.961,0,0,1-2.723,0l-1.466-1.466a1.961,1.961,0,0,1,0-2.723Z" transform="translate(-117.005 -117.005)" fill="#fff"/>
</svg>
