<svg id="checked_2_" data-name="checked (2)" xmlns="http://www.w3.org/2000/svg" width="33.2" height="33.2" viewBox="0 0 33.2 33.2">
  <circle id="Ellipse_44" data-name="Ellipse 44" cx="16.6" cy="16.6" r="16.6" transform="translate(0 0)" fill="#32ba7c"/>
  <g id="Group_633" data-name="Group 633" transform="translate(5.577 8.195)">
    <path id="Path_599" data-name="Path 599" d="M96.642,206.853a1.961,1.961,0,0,1,0,2.723l-1.519,1.519a1.961,1.961,0,0,1-2.723,0l-6.65-6.7a1.961,1.961,0,0,1,0-2.723l1.519-1.519a1.961,1.961,0,0,1,2.723,0Z" transform="translate(-85.2 -194.73)" fill="#fff"/>
    <path id="Path_600" data-name="Path 600" d="M176.47,125.75a1.961,1.961,0,0,1,2.723,0l1.519,1.519a1.961,1.961,0,0,1,0,2.723l-11.52,11.468a1.961,1.961,0,0,1-2.723,0l-1.519-1.519a1.961,1.961,0,0,1,0-2.723Z" transform="translate(-159.216 -125.2)" fill="#fff"/>
  </g>
</svg>
