<svg xmlns="http://www.w3.org/2000/svg" width="21.484" height="27.345" viewBox="0 0 21.484 27.345">
  <g id="clipboard" transform="translate(-47.037 0)">
    <g id="Group_286" data-name="Group 286" transform="translate(47.037 0)">
      <g id="Group_285" data-name="Group 285" transform="translate(0 0)">
        <path id="Path_297" data-name="Path 297" d="M65.786,3.583H63.313V2.476c0-.358-.391-.521-.749-.521h-1.92A2.912,2.912,0,0,0,57.746,0a2.962,2.962,0,0,0-2.9,1.953H52.961c-.358,0-.716.163-.716.521V3.583H49.771a2.767,2.767,0,0,0-2.734,2.637V24.871a2.619,2.619,0,0,0,2.734,2.474H65.786a2.619,2.619,0,0,0,2.734-2.474V6.22A2.767,2.767,0,0,0,65.786,3.583ZM53.547,3.257h1.79a.716.716,0,0,0,.618-.586,1.888,1.888,0,0,1,1.79-1.465A1.855,1.855,0,0,1,59.5,2.671a.716.716,0,0,0,.651.586h1.855v2.6H53.547ZM67.219,24.871a1.32,1.32,0,0,1-1.432,1.172H49.771a1.32,1.32,0,0,1-1.432-1.172V6.22a1.465,1.465,0,0,1,1.432-1.335h2.474v1.66a.684.684,0,0,0,.716.618h9.6a.716.716,0,0,0,.749-.618V4.885h2.474a1.465,1.465,0,0,1,1.432,1.335V24.871Z" transform="translate(-47.037 0)"/>
        <path id="Path_298" data-name="Path 298" d="M103.443,230.481l-2.083,1.986-.879-.911a.651.651,0,0,0-.911-.033.684.684,0,0,0,0,.944l1.335,1.367a.586.586,0,0,0,.456.2.651.651,0,0,0,.456-.2l2.539-2.409c.013-.012.026-.025.038-.038a.618.618,0,0,0-.038-.874A.651.651,0,0,0,103.443,230.481Z" transform="translate(-96.119 -215.962)"/>
        <path id="Path_299" data-name="Path 299" d="M206.686,256.034H199.2a.651.651,0,1,0,0,1.3h7.487a.651.651,0,1,0,0-1.3Z" transform="translate(-189.108 -240.082)"/>
        <path id="Path_300" data-name="Path 300" d="M206.686,172.442H199.2a.651.651,0,1,0,0,1.3h7.487a.651.651,0,0,0,0-1.3Z" transform="translate(-189.108 -161.698)"/>
        <path id="Path_301" data-name="Path 301" d="M103.443,314.073l-2.083,1.986-.879-.911a.651.651,0,0,0-.911-.033.684.684,0,0,0,0,.944l1.335,1.367a.586.586,0,0,0,.456.2.651.651,0,0,0,.456-.2l2.539-2.409c.013-.012.026-.025.038-.038a.619.619,0,0,0-.038-.874A.651.651,0,0,0,103.443,314.073Z" transform="translate(-96.119 -294.345)"/>
        <path id="Path_302" data-name="Path 302" d="M206.686,339.626H199.2a.651.651,0,1,0,0,1.3h7.487a.651.651,0,1,0,0-1.3Z" transform="translate(-189.108 -318.466)"/>
        <path id="Path_303" data-name="Path 303" d="M97.83,148H101.7a.627.627,0,0,0,.067,0,.618.618,0,0,0,.584-.651v-3.515a.651.651,0,0,0-.651-.651H97.83a.651.651,0,0,0-.651.651v3.515a.631.631,0,0,0,0,.067A.618.618,0,0,0,97.83,148Zm.651-3.515h2.572V146.7H98.481Z" transform="translate(-94.054 -134.264)"/>
      </g>
    </g>
  </g>
</svg>
