<svg xmlns="http://www.w3.org/2000/svg" width="20" height="20" viewBox="0 0 20 20">
  <g id="close" transform="translate(0 -0.135)">
    <path id="Path_62" data-name="Path 62" d="M1.3,20.135A1.3,1.3,0,0,1,.38,17.923L17.788.515A1.3,1.3,0,1,1,19.62,2.347L2.212,19.755a1.29,1.29,0,0,1-.916.38Zm0,0" transform="translate(0 0)" fill="#f44336"/>
    <path id="Path_63" data-name="Path 63" d="M18.7,20.135a1.292,1.292,0,0,1-.916-.38L.38,2.347A1.3,1.3,0,1,1,2.212.515L19.62,17.923a1.3,1.3,0,0,1-.916,2.212Zm0,0" transform="translate(0)" fill="#f44336"/>
  </g>
</svg>
