<svg id="cloud-computing" xmlns="http://www.w3.org/2000/svg" width="38.304" height="30.071" viewBox="0 0 38.304 30.071">
  <g id="Group_148" data-name="Group 148">
    <g id="Group_147" data-name="Group 147" transform="translate(0 0)">
      <path id="Path_78" data-name="Path 78" d="M31.914,65a13.166,13.166,0,0,0-25.9,2.25,7.181,7.181,0,0,0,1.2,14.267H13.2V79.119H7.211a4.788,4.788,0,1,1,0-9.575,1.2,1.2,0,0,0,1.2-1.2,10.772,10.772,0,0,1,21.34-2.095,1.2,1.2,0,0,0,1.017.958,5.984,5.984,0,0,1-.814,11.909H25.164v2.394h4.788A8.378,8.378,0,0,0,31.914,65Z" transform="translate(0 -55.032)" fill="#bcbcbc"/>
      <path id="Path_79" data-name="Path 79" d="M185.823,249.359l-4.788,4.788,1.688,1.688,2.753-2.741v11.478h2.394V253.093l2.741,2.741,1.688-1.688-4.788-4.788A1.2,1.2,0,0,0,185.823,249.359Z" transform="translate(-167.493 -234.5)" fill="#bcbcbc"/>
    </g>
  </g>
</svg>
