<svg xmlns="http://www.w3.org/2000/svg" width="24.788" height="24.836" viewBox="0 0 24.788 24.836">
  <path id="Path_305" data-name="Path 305" d="M21.4,17.351v-2.1H12.735V13.3a6.657,6.657,0,1,0-.726,0v1.947H3.391v2.1a3.752,3.752,0,1,0,.726,0V15.977h7.891v1.374a3.752,3.752,0,1,0,.726,0V15.977h7.94v1.374a3.752,3.752,0,1,0,.726,0ZM3.754,24.111a3.012,3.012,0,0,1-1.973-.735,1.987,1.987,0,0,1,.933-1.333,1.569,1.569,0,0,0,2.032,0,1.979,1.979,0,0,1,.94,1.369A3.011,3.011,0,0,1,3.754,24.111Zm-.871-3.268v-.484a.847.847,0,0,1,1.695,0v.484a.847.847,0,0,1-1.695,0Zm3.9.242a3.007,3.007,0,0,1-.518,1.692,2.707,2.707,0,0,0-1.083-1.32,1.566,1.566,0,0,0,.124-.614v-.484a1.573,1.573,0,0,0-3.147,0v.484a1.563,1.563,0,0,0,.125.614,2.718,2.718,0,0,0-1.064,1.274A3.025,3.025,0,1,1,6.78,21.085ZM7.651,9.9v.341a5.931,5.931,0,1,1,9.441,0v-.33a1.811,1.811,0,0,0-1.254-1.726l-2.089-.68V6.659a2.3,2.3,0,0,0,.923-1.84V3.7a2.3,2.3,0,0,0-4.6,0V4.818a2.3,2.3,0,0,0,.813,1.752v.94l-2,.672A1.814,1.814,0,0,0,7.651,9.9Zm4.72-3.512A1.575,1.575,0,0,1,10.8,4.818v-.75h2.246l.894.894A1.575,1.575,0,0,1,12.371,6.391Zm.651.632v.615a.98.98,0,0,1-1.411,0v-.65a2.292,2.292,0,0,0,1.411.035ZM10.841,3.341a1.573,1.573,0,0,1,3.1.363v.237l-.6-.6Zm1.531,20.769a3.012,3.012,0,0,1-1.952-.716,1.982,1.982,0,0,1,.936-1.351,1.569,1.569,0,0,0,2.032,0,1.982,1.982,0,0,1,.936,1.351,3.012,3.012,0,0,1-1.952.716Zm-.847-3.268v-.484a.847.847,0,0,1,1.695,0v.484a.847.847,0,0,1-1.695,0Zm3.873.242a3.008,3.008,0,0,1-.5,1.669,2.713,2.713,0,0,0-1.073-1.3,1.565,1.565,0,0,0,.124-.614v-.484a1.573,1.573,0,1,0-3.147,0v.484a1.566,1.566,0,0,0,.124.614,2.713,2.713,0,0,0-1.073,1.3A3.025,3.025,0,1,1,15.4,21.085Zm-3.026-8.5a5.908,5.908,0,0,1-3.994-1.55V9.9A1.088,1.088,0,0,1,9.119,8.87l2.019-.679a1.706,1.706,0,0,0,2.359,0l2.116.689a1.087,1.087,0,0,1,.752,1.036v1.124a5.908,5.908,0,0,1-3.994,1.55Zm8.666,11.522a3.012,3.012,0,0,1-1.973-.735A1.986,1.986,0,0,1,20,22.043a1.569,1.569,0,0,0,2.032,0,1.98,1.98,0,0,1,.94,1.369A3.011,3.011,0,0,1,21.037,24.111Zm-.871-3.268v-.484a.847.847,0,0,1,1.695,0v.484a.847.847,0,0,1-1.695,0Zm3.379,1.934a2.707,2.707,0,0,0-1.083-1.32,1.566,1.566,0,0,0,.124-.614v-.484a1.573,1.573,0,0,0-3.147,0v.484a1.563,1.563,0,0,0,.125.614A2.718,2.718,0,0,0,18.5,22.731a3.025,3.025,0,1,1,5.045.046Zm0,0" transform="translate(-0.002 -0.001)"/>
</svg>
