<svg id="employee" xmlns="http://www.w3.org/2000/svg" width="26.573" height="24.889" viewBox="0 0 26.573 24.889">
  <g id="Group_167" data-name="Group 167">
    <path id="Path_87" data-name="Path 87" d="M26.183,37.278a.389.389,0,0,0-.389.389v2.6a.066.066,0,0,1-.066.066H24.25V34.647a.389.389,0,0,0-.778,0v5.687H20.613l.774-.851a.622.622,0,0,0,.151-.5l0-.012-.87-5.138.16-.241.042.03a.609.609,0,0,0,.9-.225h0l.885-1.773,2.021.783a1.937,1.937,0,0,1,1.122,1.757v1.687a.389.389,0,0,0,.779,0V34.164a2.714,2.714,0,0,0-1.606-2.477l-.007,0-3.442-1.333v-.709a2.842,2.842,0,0,0,1.028-1.765,1.358,1.358,0,0,0,.723-.318,1.34,1.34,0,0,0,.163-1.863v-1.05a3.725,3.725,0,0,0-6.147-2.833,1.338,1.338,0,0,0-.3-.81v-1.05a3.728,3.728,0,1,0-7.456,0V21.03a1.27,1.27,0,0,0-.3.779,3.711,3.711,0,0,0-1.468-.769.389.389,0,1,0-.2.753,2.95,2.95,0,0,1,2.2,2.852v.582l-.073-.013a.448.448,0,0,0-.093-.263c-.1-.143-.279-.322-.854-.94a.615.615,0,0,0-.789-.1,5.562,5.562,0,0,1-3.3.907.622.622,0,0,0-.685.4l-.11.022v-.6a2.968,2.968,0,0,1,2.1-2.824.389.389,0,1,0-.225-.745,3.757,3.757,0,0,0-1.9,1.326,3.694,3.694,0,0,0-.751,2.243v1.078a1.269,1.269,0,0,0-.3.82,1.344,1.344,0,0,0,1.19,1.334,2.875,2.875,0,0,0,1.085,1.811v.663L1.614,31.684l-.007,0A2.714,2.714,0,0,0,0,34.164v6.1a.845.845,0,0,0,.844.844H12.831a.839.839,0,0,0,.455-.134.838.838,0,0,0,.455.134H25.729a.845.845,0,0,0,.844-.844v-2.6A.389.389,0,0,0,26.183,37.278ZM3.929,27.073a.562.562,0,0,1-.374-.53.575.575,0,0,1,.374-.507Zm17.992,4.27-.764,1.531-.861-.611.955-1.179Zm-2.188.378-1.007-1.243V30.1a3.139,3.139,0,0,0,1.012.165h0a2.878,2.878,0,0,0,1-.182v.392Zm.457,1.422-.143.216H19.42l-.143-.216.457-.325Zm-6.906-6.115-1.007-1.243v-.373a3.139,3.139,0,0,0,1.012.165h0a2.877,2.877,0,0,0,1-.182v.392Zm.457,1.422-.143.216h-.628l-.143-.216.457-.325Zm-3.522-5.3a1.391,1.391,0,0,0,.2.037A2.875,2.875,0,0,0,11.5,25v.663l-.794.308a1.334,1.334,0,0,0-.172-.271v-1.05A3.719,3.719,0,0,0,10.22,23.147Zm5.134-.412a2.1,2.1,0,0,1-4.2,0V20.911a6.374,6.374,0,0,0,3.55-.965c.351.376.56.6.648.7C15.354,21.612,15.354,21.986,15.354,22.735Zm.743.449a1.4,1.4,0,0,0,.194-.037,3.705,3.705,0,0,0-.315,1.5v1.078a1.328,1.328,0,0,0-.154.227l-.753-.292v-.709A2.843,2.843,0,0,0,16.1,23.184Zm-4.331,3.207.956,1.179-.652.463h0l-.207.147L11.1,26.65Zm2.415.767.622-.768.669.259-.764,1.531-.207-.147h0l-.653-.464Zm.2,1.742.042.03a.609.609,0,0,0,.9-.225h0l.657-1.317a1.366,1.366,0,0,0,.888.489,2.83,2.83,0,0,0,1.086,1.81v.663l-3.309,1.283-.422-2.493Zm3.837,2.183.956,1.179-.859.611-.764-1.531ZM21.8,27.428a2.1,2.1,0,0,1-4.2,0V25.6a6.377,6.377,0,0,0,3.55-.965c.351.376.56.6.648.7C21.8,26.305,21.8,26.679,21.8,27.428Zm1.153-.885a.562.562,0,0,1-.374.53V26.014A.561.561,0,0,1,22.955,26.543Zm-6.2-1.9a2.949,2.949,0,1,1,5.9,0v.582l-.073-.013a.448.448,0,0,0-.093-.263c-.1-.147-.279-.322-.854-.94a.616.616,0,0,0-.789-.1,5.573,5.573,0,0,1-3.324.906.612.612,0,0,0-.656.4l-.11.022v-.6Zm.072,1.392v1.036a.561.561,0,0,1-.374-.53A.575.575,0,0,1,16.826,26.036Zm-.32-4.186a.56.56,0,0,1-.195.425.576.576,0,0,1-.179.1V21.321A.561.561,0,0,1,16.506,21.85ZM13.255,17A2.953,2.953,0,0,1,16.2,19.952v.582l-.073-.013a.472.472,0,0,0-.11-.287c-.1-.141-.3-.335-.837-.916a.616.616,0,0,0-.789-.1,5.56,5.56,0,0,1-3.355.9.619.619,0,0,0-.624.4l-.11.022v-.6h0A2.953,2.953,0,0,1,13.255,17Zm-2.877,4.341V22.38A.562.562,0,0,1,10,21.85.575.575,0,0,1,10.377,21.343Zm-.694,4.671a.562.562,0,0,1,0,1.058Zm-.036,1.864a1.365,1.365,0,0,0,.925-.537l.681,1.364h0a.609.609,0,0,0,.9.225l.042-.03.16.241-.422,2.492L8.62,30.351v-.709h0A2.845,2.845,0,0,0,9.648,27.878ZM6.837,31.72,5.83,30.478V30.1a3.138,3.138,0,0,0,1.012.165h0a2.876,2.876,0,0,0,1-.182v.392Zm.457,1.422-.143.216H6.523l-.143-.216.457-.325Zm1.061-2.059.67.259L8.26,32.874l-.207-.147h0L7.4,32.262ZM4.707,27.428V25.6a6.38,6.38,0,0,0,3.55-.965c.348.373.56.595.648.7v2.092a2.1,2.1,0,0,1-4.2,0Zm.61,3.656.956,1.179-.652.463h0l-.207.147-.764-1.531ZM3.1,40.334V34.647a.389.389,0,0,0-.778,0v5.687H.844a.066.066,0,0,1-.066-.066v-6.1A1.937,1.937,0,0,1,1.9,32.408l2.02-.783L4.805,33.4h0a.609.609,0,0,0,.9.225l.042-.03.16.241-.87,5.138,0,.012a.623.623,0,0,0,.151.5l.773.851H3.1Zm2.715-1.313.827-4.885H7.03l.827,4.885-1.02,1.122Zm7.08,1.247a.066.066,0,0,1-.066.066H11.353V34.647a.389.389,0,0,0-.778,0v5.687H7.716l.774-.851a.622.622,0,0,0,.151-.5l0-.012-.87-5.138.16-.241.042.03a.609.609,0,0,0,.9-.225h0l.885-1.773,2.021.783A1.933,1.933,0,0,1,12.9,34.164v6.1Zm.389-7.519a2.772,2.772,0,0,0-.635-.705l.44-2.6h.387l.44,2.6A2.773,2.773,0,0,0,13.286,32.75ZM16,40.334h0V34.647a.389.389,0,0,0-.778,0v5.687H13.741a.066.066,0,0,1-.066-.066v-6.1a1.861,1.861,0,0,1,.454-1.247,2.1,2.1,0,0,1,.667-.509l2.02-.783L17.7,33.4h0a.609.609,0,0,0,.9.225l.042-.03.16.241-.87,5.138,0,.012a.623.623,0,0,0,.151.5l.773.851H16Zm2.715-1.313.827-4.885h.387l.827,4.885-1.02,1.122Z" transform="translate(0 -16.224)"/>
  </g>
</svg>
