<svg id="file" xmlns="http://www.w3.org/2000/svg" width="22.617" height="26.765" viewBox="0 0 22.617 26.765">
  <g id="Group_86" data-name="Group 86" transform="translate(3.694 15.757)">
    <g id="Group_85" data-name="Group 85" transform="translate(0)">
      <path id="Path_55" data-name="Path 55" d="M120.523,301.421h-9.791a.392.392,0,1,0,0,.785h9.791a.392.392,0,1,0,0-.785Z" transform="translate(-110.34 -301.421)"/>
    </g>
  </g>
  <g id="Group_88" data-name="Group 88" transform="translate(3.694 17.604)">
    <g id="Group_87" data-name="Group 87" transform="translate(0)">
      <path id="Path_56" data-name="Path 56" d="M117.483,336.751h-6.75a.392.392,0,1,0,0,.785h6.75a.392.392,0,1,0,0-.785Z" transform="translate(-110.34 -336.751)"/>
    </g>
  </g>
  <g id="Group_90" data-name="Group 90">
    <g id="Group_89" data-name="Group 89">
      <path id="Path_57" data-name="Path 57" d="M61.9,8.039a.392.392,0,0,0,.392-.392V4.1a.392.392,0,0,0-.392-.392h-4.45V.392A.392.392,0,0,0,57.061,0H40.071a.392.392,0,0,0-.392.392V13.869a.392.392,0,1,0,.785,0V.785h16.2V18.92H53.706a.392.392,0,0,0-.392.392v2.962H40.464V15.439a.392.392,0,1,0-.785,0v7.229a.392.392,0,0,0,.392.392h4.45v3.313a.392.392,0,0,0,.392.392H58.587l.022,0,.016,0,.023-.006.014,0,.022-.008.014-.005.021-.01.014-.007.021-.013.012-.007.027-.02,0,0,.029-.026L62.181,23.3a.392.392,0,0,0,.034-.04l.007-.01a.393.393,0,0,0,.027-.043v0a.386.386,0,0,0,.02-.045l0-.012a.4.4,0,0,0,.013-.049h0a.4.4,0,0,0,.006-.05s0-.009,0-.013,0-.009,0-.013V9.216a.392.392,0,0,0-.785,0V22.625H58.548a.392.392,0,0,0-.392.392V25.98H45.306V23.06h8.439l.022,0,.016,0,.023-.006.014,0,.022-.008.014-.005.021-.01.014-.007L53.911,23l.012-.007.027-.02,0,0,.029-.026,3.355-3.355a.393.393,0,0,0,.034-.04l.007-.01a.383.383,0,0,0,.027-.043v0a.385.385,0,0,0,.02-.045l0-.012a.381.381,0,0,0,.013-.049h0a.4.4,0,0,0,.006-.05s0-.009,0-.013,0-.009,0-.013V4.49h4.057V7.647A.393.393,0,0,0,61.9,8.039ZM58.941,23.41h2.015l-2.015,2.015ZM54.1,21.72V19.705h2.015Z" transform="translate(-39.679)"/>
    </g>
  </g>
  <g id="Group_92" data-name="Group 92" transform="translate(5.249 6.165)">
    <g id="Group_91" data-name="Group 91" transform="translate(0)">
      <path id="Path_58" data-name="Path 58" d="M146.525,118.241a1.067,1.067,0,0,0-1.509,0l-2.315,2.315-.78-.78a1.067,1.067,0,1,0-1.509,1.509l1.535,1.535a1.067,1.067,0,0,0,1.509,0l3.07-3.07a1.067,1.067,0,0,0,0-1.509Zm-.555.954-3.07,3.07a.281.281,0,0,1-.2.083.285.285,0,0,1-.2-.083l-1.535-1.535a.282.282,0,0,1,.4-.4l1.058,1.058a.392.392,0,0,0,.555,0l2.593-2.593a.282.282,0,0,1,.4.4Z" transform="translate(-140.099 -117.928)"/>
    </g>
  </g>
  <g id="Group_94" data-name="Group 94" transform="translate(2.854 2.925)">
    <g id="Group_93" data-name="Group 93" transform="translate(0)">
      <path id="Path_59" data-name="Path 59" d="M100.036,55.952A5.727,5.727,0,0,0,96.7,57.015a.392.392,0,1,0,.455.64A4.981,4.981,0,1,1,96.1,58.666a.392.392,0,1,0-.62-.481,5.71,5.71,0,0,0-1.208,3.532,5.765,5.765,0,1,0,5.765-5.765Z" transform="translate(-94.271 -55.952)"/>
    </g>
  </g>
</svg>
