<svg xmlns="http://www.w3.org/2000/svg" width="20" height="20" viewBox="0 0 20 20">
  <path id="info" d="M.781,20a.781.781,0,0,1-.724-1.074l1.774-4.388A8.64,8.64,0,0,1,0,9.219,8.812,8.812,0,0,1,2.954,2.676,10.385,10.385,0,0,1,10,0a10.385,10.385,0,0,1,7.046,2.676A8.812,8.812,0,0,1,20,9.219,8.675,8.675,0,0,1,18.414,14.2a.781.781,0,0,1-1.281-.895,7.12,7.12,0,0,0,1.3-4.09C18.438,5,14.652,1.563,10,1.563S1.563,5,1.563,9.219A7.142,7.142,0,0,0,3.322,13.9a.781.781,0,0,1,.13.8L2.227,17.728l3.568-1.573a.781.781,0,0,1,.622,0,9.217,9.217,0,0,0,7.7-.246A.781.781,0,1,1,14.82,17.3a10.787,10.787,0,0,1-8.7.42L1.1,19.934A.78.78,0,0,1,.781,20Zm10-7.3V8.477a.781.781,0,0,0-1.562,0V12.7a.781.781,0,0,0,1.563,0ZM10,5a.781.781,0,0,0-.781.781h0a.781.781,0,0,0,1.563,0h0A.781.781,0,0,0,10,5Z" fill="#b58d2e"/>
</svg>
