<svg xmlns="http://www.w3.org/2000/svg" width="21.25" height="21.251" viewBox="0 0 21.25 21.251">
  <path id="list" d="M20.522,12.018a2.493,2.493,0,0,0-3.521,0l-4.557,4.547a.83.83,0,0,0-.208.346l-.993,3.267a.83.83,0,0,0,1.016,1.041l3.351-.928a.832.832,0,0,0,.365-.212l4.548-4.539a2.494,2.494,0,0,0,0-3.522ZM14.956,18.75l-1.686.467.493-1.624,3.075-3.068L18.013,15.7Zm4.393-4.385-.161.161-1.174-1.174.16-.16a.83.83,0,0,1,1.174,1.174ZM9.506,20.42a.83.83,0,0,1-.83.83H3.321A3.324,3.324,0,0,1,0,17.929V3.319A3.324,3.324,0,0,1,3.321,0H13.527a3.324,3.324,0,0,1,3.32,3.32V9.711a.83.83,0,1,1-1.66,0V3.319a1.662,1.662,0,0,0-1.66-1.66H3.321a1.662,1.662,0,0,0-1.66,1.66v14.61a1.662,1.662,0,0,0,1.66,1.66H8.676a.83.83,0,0,1,.83.83ZM13.532,6.183a.83.83,0,0,1-.83.83H10.253a.83.83,0,0,1,0-1.66H12.7A.83.83,0,0,1,13.532,6.183Zm-5-1.713L6.59,6.816a1.45,1.45,0,0,1-1.027.532c-.032,0-.064,0-.1,0a1.45,1.45,0,0,1-1-.4L4.447,6.93l-.89-.914A.83.83,0,0,1,4.746,4.857l.708.727,1.793-2.17a.83.83,0,0,1,1.28,1.057ZM12.7,12.119H10.253a.83.83,0,1,1,0-1.66H12.7a.83.83,0,1,1,0,1.66ZM8.527,9.571,6.59,11.916a1.45,1.45,0,0,1-1.027.532c-.032,0-.064,0-.1,0a1.45,1.45,0,0,1-1-.4l-.021-.02-.89-.909A.83.83,0,0,1,4.745,9.961l.709.724L7.247,8.513a.83.83,0,0,1,1.28,1.057Zm0,5.022L6.59,16.938a1.45,1.45,0,0,1-1.027.532c-.032,0-.064,0-.1,0a1.45,1.45,0,0,1-1-.4l-.021-.02-.89-.909a.83.83,0,1,1,1.186-1.162l.709.724,1.794-2.171a.83.83,0,0,1,1.28,1.057Zm0,0" transform="translate(-0.001 0.001)" fill="#fff"/>
</svg>
