<svg xmlns="http://www.w3.org/2000/svg" width="51.149" height="66.778" viewBox="0 0 51.149 66.778"><g transform="translate(-6 -0.5)"><g transform="translate(6 4.478)"><path d="M54.591,66.1H8.557A2.547,2.547,0,0,1,6,63.542V5.857A2.547,2.547,0,0,1,8.557,3.3H54.591a2.547,2.547,0,0,1,2.557,2.557V63.4A2.582,2.582,0,0,1,54.591,66.1ZM11.115,60.843H51.892V8.557H11.115Z" transform="translate(-6 -3.3)" fill="#d7be69"/></g><g transform="translate(17.082 0.5)"><path d="M16.357,13.145A2.547,2.547,0,0,1,13.8,10.588V3.057a2.557,2.557,0,1,1,5.115,0v7.388a2.582,2.582,0,0,1-2.557,2.7Z" transform="translate(-13.8 -0.5)" fill="#d7be69"/><g transform="translate(11.935)"><path d="M24.757,13.145A2.547,2.547,0,0,1,22.2,10.588V3.057a2.557,2.557,0,0,1,5.115,0v7.388a2.582,2.582,0,0,1-2.557,2.7Z" transform="translate(-22.2 -0.5)" fill="#d7be69"/></g><g transform="translate(23.87)"><path d="M33.157,13.145A2.547,2.547,0,0,1,30.6,10.588V3.057a2.557,2.557,0,1,1,5.115,0v7.388a2.427,2.427,0,0,1-2.557,2.7Z" transform="translate(-30.6 -0.5)" fill="#d7be69"/></g></g><g transform="translate(17.082 25.506)"><path d="M40.227,23.215H16.357a2.557,2.557,0,1,1,0-5.115H40.369a2.547,2.547,0,0,1,2.557,2.557,2.582,2.582,0,0,1-2.7,2.557Z" transform="translate(-13.8 -18.1)" fill="#d7be69"/><g transform="translate(0 15.771)"><path d="M40.227,34.315H16.357a2.557,2.557,0,1,1,0-5.115H40.369a2.547,2.547,0,0,1,2.557,2.557,2.672,2.672,0,0,1-2.7,2.557Z" transform="translate(-13.8 -29.2)" fill="#d7be69"/></g></g></g></svg>