<svg xmlns="http://www.w3.org/2000/svg" width="56" height="55.586" viewBox="0 0 56 55.586"><g transform="translate(0 -0.414)"><g transform="translate(0 0.414)"><rect width="7" height="23" rx="1" transform="translate(0 32.586)" fill="#d7be69"/><path d="M55.594,40.1a1.725,1.725,0,0,0-1.888-.527L35.2,45.744a4.991,4.991,0,0,1-1.046.213.961.961,0,0,1-.119.023c-.016,0-.032-.009-.049-.01-.123.009-.244.03-.368.03H24.725a7.974,7.974,0,0,0-4.438,1.344l-.732.488a1,1,0,0,1-1.11-1.664l.733-.488A9.966,9.966,0,0,1,24.725,44H30.8a2.613,2.613,0,0,0,.149-2.91l-.09-.149A4.019,4.019,0,0,0,27.432,39H22.2c-.234,0-.467-.014-.7-.03a10.166,10.166,0,0,1-5.623-2.189A8.152,8.152,0,0,0,10.8,35H9V55H33.3a6,6,0,0,0,3.12-.875l18.745-11.41a1.739,1.739,0,0,0,.486-2.53C55.631,40.157,55.611,40.129,55.594,40.1Z" transform="translate(0 -0.414)" fill="#d7be69"/><path d="M33.6,44,54.59,23,47.3,15.707a1.882,1.882,0,0,0-2.646.06l-.094.094a.41.41,0,0,0-.07.321A6.9,6.9,0,0,1,41.2,22.947,6.717,6.717,0,0,1,34.247,23a6.584,6.584,0,0,1-3.129-4.852,6.886,6.886,0,0,1,7.74-7.62.345.345,0,0,0,.264-.067l.113-.111A1.883,1.883,0,0,0,39.29,7.7L32,.414,24.457,7.948a3.937,3.937,0,0,1-2.732,1.166h-.061a3.759,3.759,0,0,1-2.681-1.107l-.073-.065a2.3,2.3,0,0,1-.63-1.989A4.522,4.522,0,0,0,13.268.646,5.006,5.006,0,0,0,9.6,3a4.7,4.7,0,0,0-.106,4.853,4.575,4.575,0,0,0,4.7,2.184,2.268,2.268,0,0,1,2,.612l.079.079a3.755,3.755,0,0,1,1.1,2.735A3.931,3.931,0,0,1,16.217,16.2L8.675,23.73,21.932,36.988c.09,0,.179.012.269.012h5.231a6.033,6.033,0,0,1,5.145,2.913l.09.149A4.6,4.6,0,0,1,33.039,44Z" transform="translate(0 -0.414)" fill="#d7be69"/></g></g></svg>