<svg xmlns="http://www.w3.org/2000/svg" width="18" height="23.2" viewBox="0 0 18 23.2">
  <g id="pdf" transform="translate(-6.5)">
    <path id="Path_485" data-name="Path 485" d="M37.916,24.892a.633.633,0,0,0,.092-.166c-.049-.026-.114-.079-.47-.079a5.758,5.758,0,0,0-.724.043c.326.251.406.378.619.378A.6.6,0,0,0,37.916,24.892Z" transform="translate(-18.188 -14.788)" fill="#fff"/>
    <path id="Path_486" data-name="Path 486" d="M20.275,30.572c.06-.019.408-.178,1.056-1.374-.855.48-1.2.875-1.228,1.1C20.1,30.332,20.088,30.429,20.275,30.572Z" transform="translate(-8.161 -17.519)" fill="#fff"/>
    <path id="Path_487" data-name="Path 487" d="M24.5,15.6V5.591a.924.924,0,0,0-.22-.717L19.625.22A.757.757,0,0,0,19.094,0H7.485A1.037,1.037,0,0,0,6.5,1.17V15.6ZM18.9,1.356a.205.205,0,0,1,.351-.145l4.038,4.038a.205.205,0,0,1-.145.351H18.9ZM11.273,12.7c.073-.651.878-1.333,2.394-2.027a26.85,26.85,0,0,0,1.515-4.3,3.95,3.95,0,0,1-.5-2.657.767.767,0,0,1,.454-.486,1.964,1.964,0,0,1,.406-.069c.2,0,.379.26.5.42s.386.469-.149,2.721a12.782,12.782,0,0,0,2.035,3.025,7.782,7.782,0,0,1,1.343-.143c.626,0,1.006.146,1.161.447a.81.81,0,0,1-.156.864,1.063,1.063,0,0,1-.888.476,2.659,2.659,0,0,1-1.684-.914,19.156,19.156,0,0,0-3.531,1.129,11.35,11.35,0,0,1-.953,1.7c-.409.575-.763.843-1.113.843h0a.642.642,0,0,1-.387-.13A.96.96,0,0,1,11.273,12.7Z" transform="translate(0 0)" fill="#fff"/>
    <path id="Path_488" data-name="Path 488" d="M19.52,45.444a.663.663,0,0,0-.238-.2.884.884,0,0,0-.4-.079h-.492v1.6h.6a.715.715,0,0,0,.238-.041.6.6,0,0,0,.216-.134.655.655,0,0,0,.158-.26,1.23,1.23,0,0,0,.06-.413,1.117,1.117,0,0,0-.027-.227A.659.659,0,0,0,19.52,45.444Z" transform="translate(-7.131 -27.101)" fill="#fff"/>
    <path id="Path_489" data-name="Path 489" d="M27.739,18.174a28.606,28.606,0,0,1-1.07,3.026,19.986,19.986,0,0,1,2.6-.808A13.692,13.692,0,0,1,27.739,18.174Z" transform="translate(-12.101 -10.904)" fill="#fff"/>
    <path id="Path_490" data-name="Path 490" d="M6.5,41v6a.97.97,0,0,0,.985.8h16.03A.97.97,0,0,0,24.5,47V41Zm6.558,2.972a1.16,1.16,0,0,1-.29.418,1.307,1.307,0,0,1-.448.262,1.725,1.725,0,0,1-.58.093h-.487V46.2H10.6V42.17h1.159a1.627,1.627,0,0,1,.508.082,1.382,1.382,0,0,1,.451.246,1.285,1.285,0,0,1,.323.4,1.1,1.1,0,0,1,.123.522A1.422,1.422,0,0,1,13.058,43.972Zm4.022.952a2.114,2.114,0,0,1-.271.591,1.391,1.391,0,0,1-.369.375,1.852,1.852,0,0,1-.4.205,1.638,1.638,0,0,1-.35.088,2.331,2.331,0,0,1-.235.018H13.934V42.17h1.214a2.307,2.307,0,0,1,.894.161,1.856,1.856,0,0,1,.64.429,1.762,1.762,0,0,1,.38.61,2.024,2.024,0,0,1,.126.7A2.949,2.949,0,0,1,17.081,44.923Zm3.579-2.256H18.806v1.269H20.49v.448H18.806V46.2h-.667V42.17H20.66Z" transform="translate(0 -24.6)" fill="#fff"/>
    <path id="Path_491" data-name="Path 491" d="M28.341,45.613a1.227,1.227,0,0,0-.468-.323,2.014,2.014,0,0,0-.766-.123h-.383v3.052h.651a1.087,1.087,0,0,0,.962-.426,2.165,2.165,0,0,0,.3-1.236,2.093,2.093,0,0,0-.06-.5A1.065,1.065,0,0,0,28.341,45.613Z" transform="translate(-12.135 -27.1)" fill="#fff"/>
    <path id="Path_492" data-name="Path 492" d="M28.383,9.712A.959.959,0,0,0,28.422,11C28.8,10.152,28.4,9.706,28.383,9.712Z" transform="translate(-12.989 -5.827)" fill="#fff"/>
  </g>
</svg>
