<svg id="Group_9" data-name="Group 9" xmlns="http://www.w3.org/2000/svg" width="34" height="34" viewBox="0 0 34 34">
  <path id="Path_12" data-name="Path 12" d="M2.728,22.317a19.3,19.3,0,0,0,6.062-.966,2.771,2.771,0,0,1,2.7.568l3.823,2.886a21.127,21.127,0,0,0,9.5-9.5l-2.8-3.723A2.748,2.748,0,0,1,21.33,8.8,19.334,19.334,0,0,0,22.3,2.728,2.731,2.731,0,0,1,25.028,0h6.244A2.731,2.731,0,0,1,34,2.728,31.307,31.307,0,0,1,2.728,34,2.731,2.731,0,0,1,0,31.272V25.045A2.731,2.731,0,0,1,2.728,22.317Z"/>
</svg>
