<svg xmlns="http://www.w3.org/2000/svg" width="34.001" height="34" viewBox="0 0 34.001 34">
  <g id="process" transform="translate(-0.001 -0.001)">
    <path id="Path_621" data-name="Path 621" d="M182,182.992h7.969a1,1,0,0,0,0-1.992H182a1,1,0,0,0,0,1.992Zm0,0" transform="translate(-168.979 -168.98)" fill="#fff"/>
    <path id="Path_622" data-name="Path 622" d="M182,242.992h7.969a1,1,0,0,0,0-1.992H182a1,1,0,0,0,0,1.992Zm0,0" transform="translate(-168.979 -224.995)" fill="#fff"/>
    <path id="Path_623" data-name="Path 623" d="M182,302.992h7.969a1,1,0,0,0,0-1.992H182a1,1,0,0,0,0,1.992Zm0,0" transform="translate(-168.979 -281.011)" fill="#fff"/>
    <path id="Path_624" data-name="Path 624" d="M332.047,60.4a10.969,10.969,0,0,1,5.482,6.7h-1.568a1,1,0,0,0-.829,1.549l3.486,6a1.034,1.034,0,0,0,1.658,0c.38-.654,3.683-6.229,3.553-6A1,1,0,0,0,343,67.095h-1.363a14.913,14.913,0,0,0-7.773-10.236,3.035,3.035,0,0,1,.1.773,2.86,2.86,0,0,1-1.922,2.764Zm0,0" transform="translate(-309.995 -53.083)" fill="#fff"/>
    <path id="Path_625" data-name="Path 625" d="M53.608.168A1,1,0,0,0,52.059,1V2.359A14.956,14.956,0,0,0,40.754,12.679a2.946,2.946,0,0,1,4.1.386,10.976,10.976,0,0,1,7.2-6.6V8.036a1,1,0,0,0,1.549.829l6-3.487a1.034,1.034,0,0,0,0-1.658c-.654-.38-6.229-3.683-6-3.553Zm0,0" transform="translate(-38.046 0)" fill="#fff"/>
    <path id="Path_626" data-name="Path 626" d="M.119,218.443a1,1,0,0,0,.879.526H2.928a14.942,14.942,0,0,0,7.2,8.234,3.025,3.025,0,0,1-.1-.763,2.853,2.853,0,0,1,1.907-2.757,11,11,0,0,1-4.683-4.714h.783a1,1,0,0,0,.829-1.549l-3.486-6a1.034,1.034,0,0,0-1.658,0c-.263.452-3.768,6.374-3.553,6a1,1,0,0,0-.05,1.022Zm0,0" transform="translate(0 -196.988)" fill="#fff"/>
    <path id="Path_627" data-name="Path 627" d="M188.97,336.935a1,1,0,0,0-1.549-.829l-6,3.486a1.034,1.034,0,0,0,0,1.658c.654.38,6.229,3.683,6,3.553a1,1,0,0,0,1.549-.829v-1.363a14.912,14.912,0,0,0,10.235-7.772,3.023,3.023,0,0,1-3.571-1.75,10.97,10.97,0,0,1-6.664,5.413Zm0,0" transform="translate(-168.98 -310.97)" fill="#fff"/>
  </g>
</svg>
