<svg id="question" xmlns="http://www.w3.org/2000/svg" width="25.667" height="25.667" viewBox="0 0 25.667 25.667">
  <path id="Path_107" data-name="Path 107" d="M12.833,0A12.833,12.833,0,1,0,25.667,12.833,12.848,12.848,0,0,0,12.833,0Zm0,0" fill="#ffc107"/>
  <path id="Path_108" data-name="Path 108" d="M236.807,363.737a1.069,1.069,0,1,1-1.069-1.069A1.069,1.069,0,0,1,236.807,363.737Zm0,0" transform="translate(-222.904 -344.487)" fill="#eceff1"/>
  <path id="Path_109" data-name="Path 109" d="M166.506,94.574a1.074,1.074,0,0,0-.624.972v.48a1.069,1.069,0,1,1-2.139,0v-.48a3.222,3.222,0,0,1,1.866-2.915,3.5,3.5,0,0,0,1.877-2.487,2.674,2.674,0,0,0-5.347,0,1.069,1.069,0,1,1-2.139,0,4.813,4.813,0,0,1,9.625,0,5.572,5.572,0,0,1-3.12,4.43Zm0,0" transform="translate(-151.98 -81.054)" fill="#fafafa"/>
</svg>
