<svg xmlns="http://www.w3.org/2000/svg" width="18.579" height="18.574" viewBox="0 0 18.579 18.574">
  <g id="Group_696" data-name="Group 696" transform="translate(10335.998 -10096.007)">
    <path id="Path_617" data-name="Path 617" d="M135.228,177.2l1.407-1.819h3.141v-5.758h-9.1v5.758h3.141Zm1.452-5.255h1.089v1.089H136.68Zm-2,0h1.089v1.089h-1.089Zm-.876,1.089h-1.089v-1.089h1.089Z" transform="translate(-10461.937 9932.537)" fill="#fff"/>
    <path id="Path_618" data-name="Path 618" d="M14.964,16.409h-3.73V15.255H9a1.656,1.656,0,0,0-1.654,1.654V17A1.656,1.656,0,0,0,9,18.653h2.233V17.5h4.819V13.353l.669,0a1.86,1.86,0,0,0,1.858-1.858V8.846a1.86,1.86,0,0,0-1.858-1.858h-.669V5.771A5.7,5.7,0,0,0,10.361.079H8.219A5.7,5.7,0,0,0,2.527,5.771V6.994h-.67A1.86,1.86,0,0,0,0,8.852V11.5a1.86,1.86,0,0,0,1.858,1.858H3.616V5.771a4.608,4.608,0,0,1,4.6-4.6h2.142a4.608,4.608,0,0,1,4.6,4.6V16.409Z" transform="translate(-10335.998 10095.928)" fill="#fff"/>
  </g>
</svg>
