<svg xmlns="http://www.w3.org/2000/svg" width="50" height="50" viewBox="0 0 50 50"><g transform="translate(0 0.001)"><path d="M181.6,381.3a8.957,8.957,0,0,0-3.871,0c-2.1.484-5.645,2.258-5.645,6.048l-.081,4.6a1.147,1.147,0,0,0,.161.484c.08.161.323.161.484.161h13.387l.484.081h.081a.616.616,0,0,0,.4-.161.7.7,0,0,0,.242-.484V387.35c0-3.871-3.468-5.645-5.645-6.048Zm0,0" transform="translate(-154.661 -342.674)" fill="#d7be69"/><path d="M215.425,286.511a4.113,4.113,0,1,0-4.113,4.113A4.113,4.113,0,0,0,215.425,286.511Zm0,0" transform="translate(-186.312 -253.931)" fill="#d7be69"/><path d="M354.4,381.3a8.957,8.957,0,0,0-3.871,0c-2.1.484-5.645,2.258-5.645,6.048l-.081,4.6a1.152,1.152,0,0,0,.161.484c.081.161.323.161.484.161h13.387l.484.081h.081a.616.616,0,0,0,.4-.161.7.7,0,0,0,.242-.484V387.35C360.043,383.48,356.494,381.705,354.4,381.3Zm0,0" transform="translate(-310.043 -342.674)" fill="#d7be69"/><path d="M388.226,286.511a4.113,4.113,0,1,0-4.113,4.113A4.113,4.113,0,0,0,388.226,286.511Zm0,0" transform="translate(-341.694 -253.931)" fill="#d7be69"/><path d="M9.6,381.3a8.957,8.957,0,0,0-3.871,0c-2.1.484-5.645,2.258-5.645,6.048L0,391.947a1.147,1.147,0,0,0,.161.484c.08.161.323.161.484.161H14.032l.484.081H14.6a.616.616,0,0,0,.4-.161.7.7,0,0,0,.242-.484V387.35c0-3.871-3.548-5.645-5.645-6.048Zm0,0" transform="translate(0 -342.674)" fill="#d7be69"/><path d="M42.624,286.511a4.113,4.113,0,1,0-4.113,4.113A4.113,4.113,0,0,0,42.624,286.511Zm0,0" transform="translate(-30.931 -253.931)" fill="#d7be69"/><path d="M26.488,125.778a1.06,1.06,0,0,0,.968-.242.993.993,0,0,0,.4-.806v-5.564a.4.4,0,1,1,.806,0v8.629h8.145V119.73a.4.4,0,0,1,.806,0v1.049l5.161,2.823a1.583,1.583,0,0,0,1.21-.081,1.746,1.746,0,0,0,.887-.968c0-.08.081-.161.081-.242v-.565c0-.161-.081-.242-.161-.4v-.08a1.121,1.121,0,0,0-.242-.323l-.081-.08c-.161-.081-.242-.242-.4-.242l-3.952-2.1c-.081,0-.081-.08-.161-.08l.081-.161L38.1,115.214a3.458,3.458,0,0,0-2.5-1.613H30.279a3.963,3.963,0,0,0-1.694.323,2.812,2.812,0,0,0-1.21.967,10.224,10.224,0,0,0-1.774,5.726v4.032A1.137,1.137,0,0,0,26.488,125.778Zm17.9-4.758" transform="translate(-23.021 -102.15)" fill="#d7be69"/><path d="M67.258,30.027a3.629,3.629,0,1,0-3.629,3.629A3.629,3.629,0,0,0,67.258,30.027Zm0,0" transform="translate(-53.952 -23.738)" fill="#d7be69"/><path d="M178.668,17.257l5.08-7.5,1.048.726-5.08,7.5a1.419,1.419,0,0,1,.323.4,2.829,2.829,0,0,1,.484,1.129h23.145V0H175.2V15.08l.242.4ZM199.474,2.9h1.29V17.257h-1.29Zm-4.516,6.452h1.29v7.984h-1.29Zm-3.307,2.5h1.29v5.4h-1.29ZM188.265,8.79h1.29v8.468h-1.29Zm0,0" transform="translate(-157.539)" fill="#d7be69"/></g></svg>