<svg id="trash" xmlns="http://www.w3.org/2000/svg" width="19.726" height="23.379" viewBox="0 0 19.726 23.379">
  <path id="Path_73" data-name="Path 73" d="M39.379,70.007V86.08a1.462,1.462,0,0,0,1.461,1.461H54.721a1.462,1.462,0,0,0,1.461-1.461V70.007Z" transform="translate(-37.918 -64.162)" fill="#ccd0d2"/>
  <path id="Path_74" data-name="Path 74" d="M84.594,0H91.17a1.462,1.462,0,0,1,1.461,1.461V2.922H91.17V2.192a.73.73,0,0,0-.731-.731H85.325a.73.73,0,0,0-.731.731v.731H83.133V1.461A1.462,1.462,0,0,1,84.594,0Z" transform="translate(-78.019)" fill="#ccd0d2"/>
  <path id="Path_75" data-name="Path 75" d="M74.382,124.106a1.1,1.1,0,0,0,2.192,0V113.49H74.382Zm8.767-10.616v10.616a1.1,1.1,0,0,0,2.192,0V113.49Zm-4.384,10.616a1.1,1.1,0,0,0,2.192,0V113.49H78.765v10.616Z" transform="translate(-69.998 -104.015)" fill="#aeb1b3"/>
  <path id="Path_76" data-name="Path 76" d="M39.379,78.758h16.8v1.461h-16.8Z" transform="translate(-37.918 -72.183)" fill="#aeb1b3"/>
  <path id="Path_77" data-name="Path 77" d="M23.338,35h16.8A1.462,1.462,0,0,1,41.6,36.464v2.192H21.877V36.464A1.462,1.462,0,0,1,23.338,35Z" transform="translate(-21.877 -32.081)" fill="#d1d5d7"/>
</svg>
