<svg id="Group_41" data-name="Group 41" xmlns="http://www.w3.org/2000/svg" width="17.727" height="21" viewBox="0 0 17.727 21">
  <path id="Path_16" data-name="Path 16" d="M24.487,39.313a2.239,2.239,0,0,0-1.916-1.742,59.557,59.557,0,0,0-6.637-.245,59.576,59.576,0,0,0-6.639.245A2.239,2.239,0,0,0,7.38,39.313a18.98,18.98,0,0,0-.313,4.19,18.977,18.977,0,0,0,.309,4.19,2.239,2.239,0,0,0,1.916,1.742,59.562,59.562,0,0,0,6.638.246,59.52,59.52,0,0,0,6.638-.246,2.239,2.239,0,0,0,1.916-1.742,18.991,18.991,0,0,0,.31-4.19A19.005,19.005,0,0,0,24.487,39.313ZM12.123,40.353H10.84v6.818H9.649V40.353H8.389V39.237h3.734Zm3.237,6.818H14.288v-.645a1.717,1.717,0,0,1-1.224.726.657.657,0,0,1-.69-.439,3.017,3.017,0,0,1-.094-.879V41.259h1.071v4.353a3.335,3.335,0,0,0,.01.417c.026.166.107.251.251.251.215,0,.44-.166.677-.5V41.259H15.36v5.912ZM19.43,45.4a4.723,4.723,0,0,1-.108,1.191.848.848,0,0,1-.856.664,1.46,1.46,0,0,1-1.107-.654v.573H16.288V39.237h1.071v2.591a1.451,1.451,0,0,1,1.107-.641.847.847,0,0,1,.856.667,4.54,4.54,0,0,1,.108,1.189Zm4.043-.986H21.331v1.048c0,.547.179.821.547.821a.46.46,0,0,0,.478-.43,6.741,6.741,0,0,0,.024-.726h1.093v.156c0,.345-.013.583-.023.69a1.526,1.526,0,0,1-.25.642,1.483,1.483,0,0,1-1.3.641,1.534,1.534,0,0,1-1.3-.605,2.29,2.29,0,0,1-.344-1.39V43.186a2.3,2.3,0,0,1,.331-1.393,1.523,1.523,0,0,1,1.283-.606,1.488,1.488,0,0,1,1.264.606,2.324,2.324,0,0,1,.332,1.393V44.41Z" transform="translate(-7.067 -28.681)" fill="#fff"/>
  <path id="Path_17" data-name="Path 17" d="M69.195,58.163q-.537,0-.538.82v.547h1.071v-.547C69.728,58.437,69.549,58.163,69.195,58.163Z" transform="translate(-54.393 -44.693)" fill="#fff"/>
  <path id="Path_18" data-name="Path 18" d="M52.039,58.163a.767.767,0,0,0-.534.261v3.6a.764.764,0,0,0,.534.264c.309,0,.466-.264.466-.8V58.97C52.505,58.437,52.348,58.163,52.039,58.163Z" transform="translate(-41.214 -44.693)" fill="#fff"/>
  <path id="Path_19" data-name="Path 19" d="M53.763,14.877A1.739,1.739,0,0,0,55,14.143v.652h1.083V8.82H55v4.567c-.24.339-.467.507-.684.507-.145,0-.23-.086-.254-.254a2.511,2.511,0,0,1-.013-.421V8.82H52.97v4.724a3.019,3.019,0,0,0,.1.888A.665.665,0,0,0,53.763,14.877Z" transform="translate(-42.339 -6.777)" fill="#fff"/>
  <path id="Path_20" data-name="Path 20" d="M18.861,4.77V8.017h1.2V4.77L21.506,0H20.292l-.819,3.148L18.62,0H17.357c.253.743.516,1.49.77,2.234A19.75,19.75,0,0,1,18.861,4.77Z" transform="translate(-14.974)" fill="#fff"/>
  <path id="Path_21" data-name="Path 21" d="M36.912,14.637a1.476,1.476,0,0,0,1.263-.612,2.337,2.337,0,0,0,.336-1.405V10.528a2.342,2.342,0,0,0-.336-1.407,1.605,1.605,0,0,0-2.523,0,2.322,2.322,0,0,0-.339,1.407V12.62a2.316,2.316,0,0,0,.339,1.405A1.476,1.476,0,0,0,36.912,14.637ZM36.4,10.311c0-.553.168-.828.517-.828s.516.275.516.828v2.513c0,.553-.167.829-.516.829s-.517-.277-.517-.829Z" transform="translate(-28.771 -6.538)" fill="#fff"/>
</svg>
